<?xml version="1.0" encoding="UTF-8" standalone="no"?>
<svg
   xmlns:dc="http://purl.org/dc/elements/1.1/"
   xmlns:cc="http://creativecommons.org/ns#"
   xmlns:rdf="http://www.w3.org/1999/02/22-rdf-syntax-ns#"
   xmlns:svg="http://www.w3.org/2000/svg"
   xmlns="http://www.w3.org/2000/svg"
   xmlns:sodipodi="http://sodipodi.sourceforge.net/DTD/sodipodi-0.dtd"
   xmlns:inkscape="http://www.inkscape.org/namespaces/inkscape"
   version="1.1"
   x="0px"
   y="0px"
   viewBox="0 0 512 640"
   enable-background="new 0 0 512 512"
   xml:space="preserve"
   id="svg245"
   sodipodi:docname="cv.svg"
   inkscape:version="0.92.2 5c3e80d, 2017-08-06"><metadata
     id="metadata251"><rdf:RDF><cc:Work
         rdf:about=""><dc:format>image/svg+xml</dc:format><dc:type
           rdf:resource="http://purl.org/dc/dcmitype/StillImage" /></cc:Work></rdf:RDF></metadata><defs
     id="defs249" /><sodipodi:namedview
     pagecolor="#ffffff"
     bordercolor="#666666"
     borderopacity="1"
     objecttolerance="10"
     gridtolerance="10"
     guidetolerance="10"
     inkscape:pageopacity="0"
     inkscape:pageshadow="2"
     inkscape:window-width="1127"
     inkscape:window-height="814"
     id="namedview247"
     showgrid="false"
     inkscape:zoom="0.36875"
     inkscape:cx="256"
     inkscape:cy="320"
     inkscape:window-x="0"
     inkscape:window-y="0"
     inkscape:window-maximized="0"
     inkscape:current-layer="svg245" /><g
     id="g239"><path
       d="M380.6,422.4H131.4c-7.8,0-14.1,6.3-14.1,14.1c0,7.8,6.3,14.1,14.1,14.1h249.2c7.8,0,14.1-6.3,14.1-14.1   C394.7,428.7,388.4,422.4,380.6,422.4z"
       id="path229" /><path
       d="M380.6,360.5H131.4c-7.8,0-14.1,6.3-14.1,14.1c0,7.8,6.3,14.1,14.1,14.1h249.2c7.8,0,14.1-6.3,14.1-14.1   C394.7,366.8,388.4,360.5,380.6,360.5z"
       id="path231" /><path
       d="M256,182.9c33.5,0,60.8-27.3,60.8-60.8c0-33.5-27.3-60.8-60.8-60.8c-33.5,0-60.8,27.3-60.8,60.8   C195.2,155.6,222.5,182.9,256,182.9z M256,89.6c17.9,0,32.5,14.6,32.5,32.5s-14.6,32.5-32.5,32.5c-17.9,0-32.5-14.6-32.5-32.5   S238.1,89.6,256,89.6z"
       id="path233" /><path
       d="M161.3,326.9h189.5c7.8,0,14.1-6.3,14.1-14.1v-57.4c0-18.5-11.3-35.3-28.2-41.9c-51.6-20.1-109.7-20.1-161.3,0   c-16.9,6.6-28.2,23.4-28.2,41.9v57.4C147.2,320.5,153.5,326.9,161.3,326.9z M175.4,255.4c0-6.9,4.1-13.2,10.2-15.6   c45.1-17.5,95.8-17.5,140.9,0c6.1,2.4,10.2,8.6,10.2,15.6v43.3H175.4V255.4z"
       id="path235" /><path
       d="M407.3,2h-235c-10.9,0-21.1,4.2-28.8,11.9L75.9,81.5C68.2,89.2,64,99.4,64,110.3v358.9c0,22.5,18.3,40.8,40.8,40.8h302.5   c22.5,0,40.8-18.3,40.8-40.8V42.8C448,20.3,429.7,2,407.3,2z M147.2,50.2v35h-35L147.2,50.2z M407.3,481.8H104.7   c-6.9,0-12.5-5.6-12.5-12.5V113.4h69.1c7.8,0,14.1-6.3,14.1-14.1V30.2h231.9c6.9,0,12.5,5.6,12.5,12.5v110.6h-52.5   c-7.8,0-14.1,6.3-14.1,14.1c0,7.8,6.3,14.1,14.1,14.1h52.5v25.1h-19.2c-7.8,0-14.1,6.3-14.1,14.1s6.3,14.1,14.1,14.1h19.2v234.4   C419.8,476.2,414.2,481.8,407.3,481.8z"
       id="path237" /></g><path
     style="fill:#ff00ff;stroke-width:2.71186447"
     d="M 83.79087,501.50527 C 64.259858,488.45771 65.093659,497.87802 65.08896,290.21044 65.086169,166.85588 66.045755,101.36791 67.930124,96.312136 71.724391,86.132095 145.43753,11.856524 156.52307,7.0432298 c 7.05504,-3.0632707 32.69535,-3.7889925 133.86805,-3.7889925 123.63288,0 125.26865,0.071406 135.68009,5.9229578 6.7164,3.7748269 12.50563,9.9865669 15.96244,17.1273879 5.28711,10.921709 5.42398,16.743707 5.42398,230.729517 0,208.45075 -0.25329,220.00178 -5.02132,228.97431 -2.76173,5.19707 -9.04388,12.19498 -13.96035,15.55091 l -8.93907,6.1017 H 256.27119 93.005467 Z m 331.30266,-21.0583 c 5.06663,-2.71159 5.24545,-6.96423 5.24545,-124.74576 V 233.76271 H 408.3293 c -12.92718,0 -20.53269,-5.03729 -20.53269,-13.59925 0,-7.24437 10.34978,-13.51939 22.29833,-13.51939 h 10.24404 v -13.55932 -13.55933 h -29.28813 c -30.77169,0 -35.79661,-1.71304 -35.79661,-12.20339 0,-10.49357 5.02272,-12.20339 35.84849,-12.20339 h 29.34001 l -0.72985,-60.260785 -0.72984,-60.260792 -6.77966,-3.443924 c -5.22758,-2.655501 -33.16496,-3.294232 -122.0339,-2.790056 l -115.25424,0.653866 -0.75772,37.784339 c -0.44528,22.204312 -1.97997,39.257052 -3.72189,41.355932 -2.1912,2.64024 -12.77784,3.57159 -40.5982,3.57159 H 92.20339 v 182.9161 c 0,171.34489 0.300214,183.09095 4.745763,185.68024 6.588197,3.83726 310.984217,3.95382 318.144377,0.12177 z M 149.15254,68.338983 c 0,-10.440678 -0.88242,-18.983051 -1.96093,-18.983051 -2.66355,0 -36.00517,33.201505 -36.00517,35.853863 0,1.16173 8.54237,2.112239 18.98305,2.112239 h 18.98305 z"
     id="path20"
     inkscape:connector-curvature="0" /><path
     style="fill:#ff00ff;stroke-width:2.71186447"
     d="m 153.89831,323.03702 c -4.16216,-2.42423 -4.74577,-7.43298 -4.74577,-40.73017 0,-41.75051 1.70862,-48.07779 16.29793,-60.35388 18.2293,-15.33895 71.16529,-25.00847 113.13707,-20.66612 45.44328,4.7015 72.82534,17.19611 81.10324,37.0079 5.59014,13.37909 5.15647,77.69093 -0.56245,83.40985 -3.72021,3.72021 -16.72359,4.25103 -102.37288,4.17904 -61.57913,-0.0518 -99.87849,-1.11171 -102.85714,-2.84662 z m 185.08474,-45.70794 c 0,-11.8351 -1.21258,-24.70769 -2.69461,-28.60574 -7.94306,-20.89183 -89.06251,-29.8819 -136.18961,-15.09322 -24.07215,7.55394 -26.53951,11.40416 -26.53951,41.41396 v 23.80338 h 82.71187 82.71186 z"
     id="path22"
     inkscape:connector-curvature="0" /><path
     style="fill:#ff00ff;stroke-width:2.71186447"
     d="m 237.96059,178.52324 c -44.16445,-16.43399 -54.90648,-70.73411 -20.04787,-101.340383 26.54442,-23.306311 67.7081,-17.047353 87.82684,13.354117 6.53125,9.869386 7.48078,13.940406 7.48078,32.073116 0,18.54926 -0.84913,21.99419 -7.94526,32.23391 -14.979,21.6147 -44.73403,32.08163 -67.31449,23.67924 z m 38.08976,-30.12935 c 16.56682,-13.94006 17.98358,-35.09529 3.33157,-49.747303 -14.90869,-14.908692 -39.13134,-12.682425 -50.80821,4.669703 -7.19389,10.69031 -7.88178,21.67762 -2.11768,33.82456 8.64076,18.20905 34.38536,24.05054 49.59432,11.25304 z"
     id="path24"
     inkscape:connector-curvature="0" /><path
     style="fill:#ff00ff;stroke-width:2.71186447"
     d="m 123.58354,384.07748 c -5.89107,-5.89106 -5.36292,-16.65313 0.98394,-20.04986 3.40237,-1.82089 50.02454,-2.80728 132.68765,-2.80728 112.24073,0 127.95051,0.50832 131.7037,4.2615 6.01609,6.01608 5.28857,13.69461 -1.76564,18.63557 -5.24616,3.67457 -22.43904,4.22157 -132.68764,4.22157 -111.5301,0 -127.16958,-0.50906 -130.92201,-4.2615 z"
     id="path26"
     inkscape:connector-curvature="0" /><path
     style="fill:#ff00ff;stroke-width:2.71186447"
     d="m 122.57627,444.74576 c -4.18305,-4.18305 -4.18305,-13.71525 0,-17.8983 2.44016,-2.44017 35.63304,-3.25424 132.68765,-3.25424 114.05092,0 129.93988,0.50646 133.69491,4.2615 5.07531,5.07531 5.51133,12.38698 1.00727,16.89104 -4.68786,4.68786 -262.70197,4.68786 -267.38983,0 z"
     id="path28"
     inkscape:connector-curvature="0" /><path
     style="fill:#ff00ff;stroke-width:2.71186447"
     d=""
     id="path30"
     inkscape:connector-curvature="0" /><path
     style="fill:#ff00ff;stroke-width:2.71186447"
     d="M 81.161688,497.24336 69.422448,486.82568 66.887252,412.4976 C 65.46099,370.68174 65.24888,284.87864 66.402336,216.33824 L 68.452616,94.506983 106.59409,55.570351 c 20.9778,-21.415148 41.88105,-41.213614 46.45165,-43.996589 7.5087,-4.5719388 17.07212,-5.2239464 99.15765,-6.7602992 49.9661,-0.9351897 108.81774,-0.7050427 130.78142,0.5114381 38.95236,2.1574167 40.134,2.4034516 48.0729,10.0093951 15.30058,14.658881 14.96751,9.224407 14.88285,242.835194 -0.0868,239.37277 0.76659,227.95485 -18.11219,242.35439 l -9.35726,7.13714 H 255.68601 92.900927 Z M 415.09353,480.44697 c 5.06633,-2.71143 5.24545,-6.96076 5.24545,-124.43786 V 234.37854 L 408.168,232.55339 c -24.95032,-3.74153 -25.21801,-19.42621 -0.41524,-24.32993 l 12.58622,-2.48841 v -13.10481 -13.10482 l -11.52542,-0.0192 c -27.05397,-0.0453 -48.35338,-3.45611 -50.86286,-8.1451 -5.25991,-9.82823 2.21329,-13.24666 33.23574,-15.2029 l 29.15254,-1.83835 V 94.137581 33.955336 l -6.90725,-3.14716 c -4.89809,-2.23171 -40.67284,-3.147159 -122.98741,-3.147159 H 174.36417 l -1.51479,38.264911 c -0.83314,21.045703 -2.55517,39.305282 -3.82673,40.576842 -1.27156,1.27156 -19.07608,3.15325 -39.5656,4.18154 l -37.25366,1.8696 v 181.08867 c 0,161.01022 0.472499,181.56116 4.261502,185.35015 3.774398,3.7744 21.928308,4.26151 158.822348,4.26151 101.35669,0 156.36648,-0.96635 159.80629,-2.80727 z M 149.15254,68.338983 c 0,-10.516588 -1.17868,-18.983051 -2.64277,-18.983051 -3.69463,0 -35.32333,31.314129 -35.32333,34.972011 0,1.899059 6.94269,2.994091 18.98305,2.994091 h 18.98305 z"
     id="path32"
     inkscape:connector-curvature="0" /></svg>