<?xml version="1.0" encoding="UTF-8" standalone="no"?>
<!-- Generator: Adobe Illustrator 16.0.0, SVG Export Plug-In . SVG Version: 6.00 Build 0)  -->

<svg
   xmlns:dc="http://purl.org/dc/elements/1.1/"
   xmlns:cc="http://creativecommons.org/ns#"
   xmlns:rdf="http://www.w3.org/1999/02/22-rdf-syntax-ns#"
   xmlns:svg="http://www.w3.org/2000/svg"
   xmlns="http://www.w3.org/2000/svg"
   xmlns:sodipodi="http://sodipodi.sourceforge.net/DTD/sodipodi-0.dtd"
   xmlns:inkscape="http://www.inkscape.org/namespaces/inkscape"
   version="1.1"
   id="Layer_5"
   x="0px"
   y="0px"
   width="864px"
   height="864px"
   viewBox="0 0 864 864"
   enable-background="new 0 0 864 864"
   xml:space="preserve"
   sodipodi:docname="earth.svg"
   inkscape:version="0.92.2 5c3e80d, 2017-08-06"><metadata
     id="metadata96"><rdf:RDF><cc:Work
         rdf:about=""><dc:format>image/svg+xml</dc:format><dc:type
           rdf:resource="http://purl.org/dc/dcmitype/StillImage" /></cc:Work></rdf:RDF></metadata><defs
     id="defs94" /><sodipodi:namedview
     pagecolor="#ffffff"
     bordercolor="#666666"
     borderopacity="1"
     objecttolerance="10"
     gridtolerance="10"
     guidetolerance="10"
     inkscape:pageopacity="0"
     inkscape:pageshadow="2"
     inkscape:window-width="1047"
     inkscape:window-height="776"
     id="namedview92"
     showgrid="false"
     inkscape:zoom="0.69907407"
     inkscape:cx="432"
     inkscape:cy="432"
     inkscape:window-x="0"
     inkscape:window-y="0"
     inkscape:window-maximized="0"
     inkscape:current-layer="Layer_5" /><circle
     fill="#1C75BC"
     cx="434.074"
     cy="437.073"
     r="429.926"
     id="circle73" /><g
     id="g89"><path
       fill="#009444"
       d="M838.035,298.312c-0.792,0.167-1.586,0.333-2.378,0.5c0.138,1.111,0.127,2.266,0.435,3.328   c14.32,49.389,18.653,99.685,14.134,150.862c-0.481,5.442-1.095,9.575-7.086,11.418c-1.989,0.612-3.737,2.855-5.028,4.741   c-3.925,5.734-7.444,11.748-11.413,17.452c-1.066,1.535-3.5,3.621-4.735,3.295c-7.416-1.959-14.826-2.673-21-9.319   c-10.02-10.782-15.108-23.71-20.237-36.786c-8.654-22.055-10.823-45.126-8.836-68.541c1.045-12.32-1.216-23.48-6.54-34.648   c-4.2-8.812-9.246-18.183-2.295-29.698c-4.374,3.448-7.092,5.816-10.057,7.817c-1.223,0.826-3.691,1.708-4.377,1.127   c-5.74-4.866-16.481-4.963-15.748-16.243c0.083-1.283-1.52-2.866-2.646-4.005c-9.453-9.549-9.72-13.787-1.345-23.884   c4.821-5.813,2.636-13.283-4.487-15.233c-2.766-0.756-5.529-1.683-8.355-2.025c-10.109-1.226-12.618-4.293-11.907-14.847   c0.544-8.066,1.702-16.313-5.362-22.587l0.243,0.233c-2.23-3.857-3.532-9.458-6.87-11.238c-9.23-4.92-10.94-13.088-12.413-21.905   c-1.369-8.204-2.346-16.26-7.602-23.583c-4.606-6.418-7.033-14.387-10.561-21.604c-0.856-1.75-1.904-3.883-3.465-4.73   c-7.136-3.869-14.433-7.455-21.8-10.862c-1.448-0.669-3.469-0.096-6.584-0.096c2.718,3.354,4.188,5.169,5.971,7.367   c-2.48,2.302-4.696,4.359-6.187,5.742c12.816,9.716,25.688,19.473,38.829,29.436c-6.264,3.702-14.166,4.885-16.427,13.137   c-0.161,0.592-2.513,1.037-3.716,0.82c-11.522-2.072-22.598-5.126-28.27-16.885c-4.609-9.559-12.037-15.796-21.631-19.963   c-5.697-2.475-10.96-5.987-16.723-8.262c-9.205-3.631-13.741-11.32-19.743-20.99c11.05-3.65,21.252-7.021,31.465-10.396   c-1.126-6.2-5.466-9.907-8.115-6.722c-5.253,6.314-11.436,2.291-17.232,3.62c0.182-3.696,1.663-7.961,0.234-9.47   c-4.947-5.227-10.635-9.883-16.543-14.043c-10.385-7.311-21.335-13.825-31.654-21.222c-4.807-3.446-7.807-2.96-11.405,1.414   c-4.964,6.033-11.795,7.307-19.044,4.628c-10.216-3.775-21.414-5.21-30.889-0.566c-12.703,6.226-25.22,6.958-38.324,4.375   c-6.807-1.341-14.581-2.584-14.75-12.346c-7.581-0.043-14.905-2.317-20.503,4.576c-0.898,1.105-3.599,0.783-5.477,1.049   c-8.914,1.262-17.832,2.498-26.459,3.703c-0.84,10.69-3.715,13.638-13.647,15.067c-3.32,0.478-6.738,0.515-9.966,1.329   c-4.722,1.19-9.44,2.554-7.187,9.535c0.472,1.46-1.092,4.896-2.461,5.398c-5.303,1.948-10.868,4.053-16.408,4.277   c-7.373,0.297-9.557,4.331-9.345,10.269c0.2,5.596-2.422,8.371-6.738,11.321c-4.275,2.923-7.438,7.439-11.239,11.1   c-5.179,4.988-10.013,10.558-15.916,14.499c-4.737,3.162-10.845,4.27-16.345,6.289c-0.37-0.702-0.74-1.404-1.11-2.105   c2.523-4.011,5.126-7.975,7.548-12.047c2.608-4.384,1.485-7.27-3.851-6.684c-5.183,0.569-8.006-1.804-10.364-5.855   c-2.264-3.889-4.827-7.603-8.039-12.61c6.837-5.606,12.872-11.907,20.129-16.081c5.926-3.408,12.458-8.813,10.604-15.507   c-3.02-10.897,2.739-14.347,10.999-17.103c1.577-0.526,3.03-1.433,4.535-2.174c6.003-2.956,14.14-19.154,0.464-22.81   c-7.939-2.122,185.681-67.216,331.01,0C728.728,99.215,813,212,838.035,298.312z M753.074,154.157c0,5.11,0.218,9.115-0.044,13.087   c-0.62,9.447,0.989,17.491,10.713,22.119c1.819,0.865,3.563,4.698,3.161,6.727c-0.534,2.679-2.746,5.705-5.11,7.149   c-2.443,1.492-5.953,1.182-8.962,1.815c-2.699,0.568-5.354,1.348-10.016,2.546c5.501,2.547,8.947,3.723,11.895,5.663   c1.806,1.188,3.979,3.552,3.967,5.376c-0.02,2.966-1.407,5.984-5.772,5.542c-3.497-0.354-7.06-0.072-11.584-0.072   c0.849,4.18,1.361,7.167,2.074,10.105c1.18,4.852,3.395,9.641,3.568,14.513c0.476,13.414,9.458,22.52,15.646,33.044   c0.709,1.207,2.524,1.763,4.768,3.241c0.194-3.279,0.428-5.557,0.445-7.837c0.059-8.639-0.126-17.283,0.112-25.915   c0.239-8.671,2.077-9.895,10.771-8.019c1.133,0.244,2.288,0.38,3.172,0.523c5.52-16.208-9.9-24.16-14.257-36.48   c7.598-1.745,8.854-3.988,7.401-10.95c-0.916-4.392-1.076-8.937-1.716-13.394c-0.262-1.825-0.395-3.98-1.438-5.331   C765.891,169.864,759.656,162.313,753.074,154.157z"
       id="path75" /><path
       fill-rule="evenodd"
       clip-rule="evenodd"
       fill="#009444"
       d="M491.307,796.537c-9.887,1.649-13.95-3.308-18.302-8.343   c-11.148-12.899-22.633-25.482-38.181-33.415c-2.328-1.187-4.543-2.74-6.499-4.478c-3.566-3.168-8.662-4.604-9.066-11.062   c-0.606-9.714,0.627-18.711,6.832-26.314c1.602-1.963,4.971-2.839,7.7-3.462c7.701-1.761,10.234-7.39,10.727-14.204   c0.446-6.183,0.094-12.424,0.094-19.529c-4.076-0.291-8.581-1.694-12.455-0.683c-10.616,2.769-19.612-1.602-29.165-4.626   c-9.078-2.875-15.138-7.743-18.236-17.113c-4.763-14.402-17.312-21.482-29.833-27.355c-13.163-6.176-27.068-10.858-40.862-15.569   c-10.147-3.465-19.131-8.144-26.918-15.796c-5.713-5.615-13.005-9.596-19.401-14.552c-4.039-3.13-8.408-6.226-11.317-10.278   c-1.812-2.523-1.197-6.8-1.633-10.295c-0.718-5.766,0.136-12.341-2.383-17.158c-8.833-16.893-15.291-34.497-19.537-53.008   c-0.353-1.541-1.357-2.932-3.229-4.269c-3.697,8.517,0.137,16.902,2.169,24.781c2.118,8.211,6.817,15.757,10.394,23.607   c-9.365-1.379-15.924-8.141-18.885-16.611c-7.884-22.553-15.338-45.349-21.071-68.516c-2.257-9.125,0.412-19.498,1.007-29.292   c1.708-28.093,10.859-53.25,29.342-74.829c1.345-1.571,1.488-4.879,1.043-7.156c-2.814-14.413-1.635-28.598,1.963-42.66   c2.786-10.889,6.544-21.582,8.526-32.604c1.367-7.604,1.061-15.674,0.389-23.44c-1-11.588-9.55-16.722-19.396-20.361   c-6.95-2.568-13.672-5.835-20.744-7.97c-7.697-2.322-8.91-8.143-9.979-14.652c5.809,2.894,11.297,5.626,17.038,8.485   c2.832-6.608,4.848-11.692,7.163-16.636c4.292-9.163,11.134-13.273,20.47-10.543c7.182,2.1,9.777-0.914,11.259-6.686   c1.184-4.615,3.647-6.598,8.576-6.771c7.917-0.278,15.793-1.589,23.71-2.002c10.636-0.555,13.364,1.675,15.744,11.992   c0.751,3.259,2.104,6.686,1.704,9.848c-1.179,9.318,3.765,16.149,9.709,21.41c14.715,13.024,30.28,25.089,45.534,37.501   c0.475,0.386,1.289,0.356,2.132,0.568c2.274-4.489,1.309-7.935-2.936-10.245c-4.601-2.504-6.065-6.621-7.72-11.328   c-1.477-4.199-5.298-7.574-8.351-11.669c3.331-7.253,10.201-8.708,17.614-8.287c1.827,0.104,3.609,2.506,5.252,4.025   c3.767,3.482,8.175,6.577,10.95,10.742c3.286,4.933,5.549,10.687,7.43,16.358c1.01,3.047-0.065,6.727,0.483,10.007   c0.341,2.046,1.955,3.879,2.998,5.808c1.96-1.067,4.633-1.669,5.708-3.315c1.484-2.271,1.987-5.286,2.514-8.058   c1.371-7.21,1.285-7.227,9.128-6.731c4.189,6.458-1.577,16.734,7.185,20.917c3.656,1.745,8.84,0.29,13.64,0.29   c-5.888-6.765-11.013-12.652-15.979-18.358c7.876-10.744,11.428-11.845,23.418-6.338c9.129,4.192,18.063,8.888,26.728,13.968   c2.565,1.504,3.739,5.234,5.873,7.66c3.648,4.146,6.841,9.803,11.501,11.711c8.813,3.608,12.527,10.489,15.46,16.64   c-2.759,6.685-4.184,12.964-7.723,17.647c-2.115,2.8-8.009,5.005-11.394,4.174c-11.427-2.806-22.491-7.088-34.431-11.05   c8.565-5.363,16.368-11.653,12.749-23.272c-3.028-9.721-12.235-10.103-21.11-12.596c2.17,2.83,3.792,4.942,6.37,8.303   c-5.556,4.921-10.864,9.932-16.497,14.546c-10.435,8.549-20.957,17.185-26.917,29.526c-3.94,8.158-6.143,17.292-0.684,25.879   c1.467,2.307,4.501,4.027,7.184,5.054c3.987,1.525,8.347,2.043,12.47,3.26c6.877,2.03,11.073,5.198,11.165,13.939   c0.083,7.962,6.196,14.083,13.869,19.417c1.066-6.543,1.806-12.354,3.005-18.067c1.157-5.51,2.789-10.921,4.333-16.838   c-7.99-10.531-4.423-23.896-4.791-36.447c-0.037-1.271,7.649-4.803,10.415-3.756c9.6,3.634,20.061,5.871,26.864,15.364   c2.174,3.032,8.476,3.05,12.842,4.582c5.033,1.766,10.855,2.611,14.848,5.748c9.171,7.21,17.44,15.565,26.065,23.467   c0.528,0.483,1.173,0.99,1.41,1.619c5.837,15.48,21.013,21.84,31.679,32.599c3.061,3.087,5.5,6.791,8.433,10.475   c-18.797,8.178-31.138-4.257-35.531-21.29c-6.362,2.503-12.686,6.052-19.449,7.414c-11.394,2.292-20.22,7.785-27.22,16.621   c0.329,0.616,0.657,1.233,0.984,1.851c3.158-1.839,6.55-3.372,9.43-5.575c8.094-6.191,12.731-4.861,15.982,4.537   c0.513,1.481,2.776,3.019,4.432,3.288c2.525,0.412,5.402,0.249,7.814-0.584c4.379-1.511,5.846,0.541,7.438,4.122   c1.896,4.263-0.116,5.921-3.371,7.848c-7.75,4.588-15.317,9.484-23.848,14.811c-10.137-3.396-10.423-3.166-17.272,7.214   c-4.027,6.104-6.873,12.509-13.201,17.694c-8.686,7.115-13.117,18.981-13.082,30.193c0.034,10.911-5.47,16.278-12.851,21.982   c-6.142,4.746-12.472,9.742-17.076,15.862c-5.521,7.336-6.578,15.813-1.764,24.827c2.574,4.82,2.935,10.823,4.188,15.862   c-6.681,4.46-10.965,3.702-14.311-2.628c-2.116-4.001-5.093-7.544-7.636-11.324c-7.773-11.565-23.379-15.594-36.507-10.554   c-4.14,1.59-9.906,1.358-14.162-0.171c-21.24-7.635-38.77,1.927-43.18,24.241c-1.264,6.398-0.168,13.265-0.147,19.916   c0.001,0.479-0.007,0.974,0.102,1.435c2.103,8.906,24.686,20.309,32.706,16.268c1.938-0.977,3.392-3.216,4.674-5.138   c4.438-6.646,13.75-8.728,20.525-5.002c3.592,1.976,4.848,4.426,3.894,8.111c-1.485,5.732-2.802,11.549-4.857,17.083   c-2.521,6.79-1.012,8.955,6.188,9.372c6.614,0.382,13.355,1.119,19.709,2.891c11.616,3.239,14.225,9.326,10.932,20.985   c-1.156,4.094-2.74,10.399-0.737,12.577c4.451,4.84,10.95,7.875,16.832,11.269c1.475,0.851,3.951-0.204,5.662,0.435   c11.858,4.425,19.941-1.407,28.084-9.09c8.632-8.145,18.629-12.312,30.404-5.554c4.468,2.564,8.952,2.217,13.552-0.504   c2.336-1.38,5.377-1.828,8.162-2.147c13.02-1.49,26.052-2.892,39.104-4.07c2.484-0.224,5.389,0.096,7.565,1.208   c19.805,10.114,40.817,13.436,62.761,11.408c5.362-0.496,9.338,0.975,12.21,5.489c0.255,0.398,0.735,0.667,0.946,1.08   c7.776,15.286,20.538,15.36,34.616,11.33c12.379-3.545,24.812-6.917,37.084-10.803c9.368-2.968,13.763,4.032,20.46,8.698   c-4.232,6.169-7.951,11.969-12.051,17.486c-8.556,11.519-15.085,23.733-15.903,38.512c-0.131,2.374-2.31,5.208-4.342,6.819   c-36.689,29.087-76.661,52.852-120.902,68.078c-26.8,9.226-54.898,14.707-82.478,21.612c-5.735,1.438-8.628-4.263-6.409-11.215   C488.329,809.354,489.442,803.883,491.307,796.537z"
       id="path77" /><path
       fill-rule="evenodd"
       clip-rule="evenodd"
       fill="#009444"
       d="M443.735,189.618c-2.969,8.337-5.938,16.674-9.161,25.724   c-4.562-2.785-9.07-4.989-12.932-8.018c-6.821-5.349-7.466-10.476-4.76-18.748c1.67-5.108,1.854-10.703,2.955-17.666   c11.068-8.128,22.931-8.902,26.963,0.831c2.802-1.611,6.029-2.595,7.986-4.739c10.654-11.672,31.584-14.545,45.178-6.633   c7.347,4.276,15.344,7.56,23.304,10.629c15.49,5.974,26.854,17.272,37.893,28.89c3.851,4.053,1.971,16.452-2.58,20.346   c-4.122,3.527-5.829,7.469-5.965,12.953c-0.252,10.05-1.579,20.068-2.098,30.118c-0.34,6.569,2.657,11.407,8.993,13.858   c4.322,1.672,8.648,3.336,12.966,6.691c-10.335,3.358-20.652,6.773-31.032,9.992c-1.168,0.363-2.966,0.018-3.993-0.691   c-7.902-5.46-19.336-6.922-21.626-18.866c-0.154-0.804-1.017-1.858-1.772-2.102c-9.258-2.978-9.417-10.845-10.011-18.446   c-0.557-7.145-2.488-13.366-8.911-17.724c-10.639-7.217-21.078-14.731-31.493-22.271c-8.232-5.96-15.892-12.458-16.933-23.896   C445.716,189.773,444.726,189.695,443.735,189.618z"
       id="path79" /><path
       fill-rule="evenodd"
       clip-rule="evenodd"
       fill="#009444"
       d="M698.77,221.036c0,6.342,0,12.684,0,21.04   c-11.336-4.821-20.527-8.73-31.746-13.502c6.089,7.27,10.742,12.824,16.043,19.154c-8.697,1.624-19.802-3.304-22.669-9.892   c-5.556-12.774-10.394-25.862-15.758-39.402c3.925-4.029,7.562-3.679,12.89,0.974c5.401,4.717,12.558,7.483,19.078,10.849   c7.388,3.815,14.923,7.347,22.4,11.008C699.013,221.269,698.77,221.036,698.77,221.036z"
       id="path81" /><path
       fill-rule="evenodd"
       clip-rule="evenodd"
       fill="#009444"
       d="M574.355,213.592c2.92-2.55,6.026-4.919,8.723-7.688   c5.872-6.033,17.76-5.256,22.231,1.768c0.632,0.992,0.539,2.644,0.351,3.928c-1.478,10.032-6.248,18.339-13.49,25.324   c-2.908,2.804-10.424,1.642-13.146-3.366c-3.28-6.039-4.995-12.928-7.388-19.449C572.542,213.937,573.449,213.765,574.355,213.592z   "
       id="path83" /><path
       fill-rule="evenodd"
       clip-rule="evenodd"
       fill="#009444"
       d="M401.309,581.5c3.823-1.242,8.018-4.184,11.406-3.441   c18.116,3.967,36.038,8.827,54.001,13.472c1.546,0.398,2.916,1.475,4.291,2.195c-1.593,8.64-13.33,13.168-20.909,8.29   c-4.419-2.845-8.426-6.77-13.233-8.479c-10.488-3.73-21.368-6.36-32.092-9.423c-1.05-0.3-2.132-0.488-3.199-0.728   C401.485,582.758,401.397,582.129,401.309,581.5z"
       id="path85" /><path
       fill-rule="evenodd"
       clip-rule="evenodd"
       fill="#009444"
       d="M513.149,607.881c-12.478,3.615-23.851,5.104-34.914-0.592   c-1.969-1.014-3.887-3.796-4.101-5.935c-0.131-1.326,2.758-3.615,4.711-4.34c3.314-1.229,6.934-1.795,10.476-2.224   c5.209-0.63,10.462-2.441,12.883,5.571C503.13,603.431,508.812,605.062,513.149,607.881z"
       id="path87" /></g><path
     style="fill:#280b0b;stroke-width:1.43046355"
     d="m 487.34622,822.18789 c -0.9853,-1.84106 -0.58321,-5.76574 1.35563,-13.23179 3.46016,-13.32436 3.49839,-12.76007 -0.86476,-12.76007 -5.7322,0 -8.40815,-2.02894 -24.19885,-18.34792 -8.59826,-8.88591 -18.26854,-17.32397 -23.13446,-20.18656 -4.5984,-2.70522 -11.0965,-7.09335 -14.4402,-9.75139 -5.98295,-4.75609 -6.07947,-4.97411 -6.07947,-13.73197 0,-12.85529 4.29731,-20.87256 12.85833,-23.98917 9.85568,-3.58792 11.88215,-7.33698 12.04094,-22.27625 l 0.13384,-12.59092 -12.87417,-0.13331 c -14.17006,-0.14678 -26.57985,-3.09333 -35.98663,-8.54456 -4.77259,-2.76572 -7.00258,-5.58275 -11.29298,-14.26586 -8.41263,-17.02591 -18.58955,-23.6187 -59.28993,-38.40925 -22.83388,-8.29785 -24.79769,-9.42657 -50.33217,-28.92902 -18.93349,-14.46082 -19.2344,-14.8843 -20.21759,-28.45271 -0.67498,-9.31509 -1.89863,-13.73102 -6.56286,-23.68423 -5.38769,-11.49703 -10.89267,-27.15369 -14.42924,-41.03801 -2.20556,-8.65888 -5.73217,-8.21804 -5.72169,0.71523 0.01,8.57163 1.91335,15.67658 7.47717,27.91228 2.4194,5.32062 3.94148,10.1313 3.3824,10.69038 -1.66403,1.66403 -8.42065,-2.92085 -11.88906,-8.06761 -3.3733,-5.00565 -12.83733,-32.63584 -20.34337,-59.3924 -4.80645,-17.13341 -5.26929,-24.79012 -2.89632,-47.91404 2.60859,-25.42012 9.49653,-44.60081 22.64405,-63.05642 l 6.62378,-9.29802 0.10051,-20.74172 c 0.0952,-19.64513 0.38237,-21.68705 5.43178,-38.62251 5.60525,-18.79969 7.70423,-35.03339 5.99954,-46.40104 -1.47002,-9.80279 -8.3094,-15.9718 -24.49102,-22.09053 -19.47171,-7.36279 -21.67452,-8.59518 -23.5782,-13.19109 -0.96524,-2.33029 -1.41049,-4.58139 -0.98944,-5.00243 0.42104,-0.42105 4.02669,0.88701 8.01254,2.90679 3.98585,2.01979 7.49337,3.67234 7.79449,3.67234 0.30112,0 2.09272,-3.96534 3.98133,-8.81185 1.88861,-4.84652 5.52533,-11.05121 8.08161,-13.78819 4.50843,-4.82715 4.89932,-4.95354 13.03771,-4.21557 4.61446,0.41842 9.09601,0.32439 9.95899,-0.20896 0.86298,-0.53336 2.57993,-3.38909 3.81544,-6.34608 1.23551,-2.957 3.03068,-5.6395 3.98926,-5.96113 0.95858,-0.32163 8.74271,-1.25598 17.29807,-2.07634 19.43439,-1.86352 22.04488,-0.9194 25.50802,9.22535 1.34239,3.93231 2.46888,9.91738 2.50331,13.30016 0.083,8.15444 2.66797,12.76364 11.87684,21.17741 12.10689,11.06158 43.61631,36.32771 45.30431,36.32771 0.84176,0 1.53047,-1.85709 1.53047,-4.12687 0,-2.8632 -1.13601,-4.87122 -3.70996,-6.55773 -2.04049,-1.33698 -4.95461,-5.24461 -6.47585,-8.68363 -1.52124,-3.43902 -4.33695,-8.11985 -6.25712,-10.40184 l -3.49124,-4.14909 3.3894,-3.18417 c 1.86417,-1.75129 5.88593,-3.51902 8.93724,-3.92829 5.21208,-0.69908 6.07266,-0.23744 14.21869,7.62719 9.20333,8.88543 14.8458,20.13878 14.8458,29.60853 0,2.57376 0.83254,5.81812 1.85009,7.2097 1.76635,2.41564 1.99352,2.41183 5.01935,-0.0842 1.74311,-1.43789 3.99649,-5.51104 5.00752,-9.05144 1.53719,-5.38287 2.41362,-6.43709 5.3515,-6.43709 2.8683,0 3.58072,0.7878 3.88076,4.29139 1.19112,13.90878 6.34845,19.37302 15.93927,16.88779 l 4.54183,-1.17691 -7.20576,-8.08468 c -3.96317,-4.44658 -7.20576,-9.06129 -7.20576,-10.25493 0,-3.27906 6.99012,-8.09974 11.74487,-8.09974 2.34084,0 11.61383,3.82077 20.90642,8.61413 14.56441,7.51269 17.33987,9.53888 21.70633,15.84644 2.75364,3.97778 8.54702,9.61008 12.87417,12.51624 4.37007,2.93498 9.09908,7.57019 10.63786,10.42687 2.69283,4.99913 2.69843,5.33121 0.19962,11.87421 -3.78625,9.91418 -7.79013,13.96946 -13.7476,13.92408 -4.95942,-0.0378 -19.39142,-4.07832 -29.18938,-8.17217 l -5.2055,-2.175 4.96534,-4.68292 c 11.54905,-10.89216 7.60268,-25.43844 -8.04446,-29.65178 -6.66301,-1.79416 -8.20292,-0.94768 -4.90513,2.69634 1.30644,1.4436 2.37534,3.24088 2.37534,3.99397 0,0.75309 -7.09062,7.38849 -15.75694,14.74534 -22.22813,18.86949 -30.01789,30.22661 -30.01789,43.7647 0,12.43255 2.89615,15.09171 22.8453,20.97603 6.98636,2.06074 9.35399,5.2448 10.80527,14.53127 0.57436,3.67526 2.78248,7.58007 6.6735,11.80132 3.19833,3.46978 6.22746,6.30867 6.73142,6.30867 0.88517,0 7.47491,-29.97609 7.54711,-34.33112 0.0196,-1.18013 -0.96486,-4.72053 -2.18761,-7.86755 -1.33839,-3.44461 -2.24817,-10.39864 -2.28598,-17.47286 -0.0565,-10.58438 0.24172,-11.91395 3.00436,-13.39247 6.36553,-3.40673 23.39726,2.27851 30.95567,10.33311 2.77071,2.95259 7.53634,5.23896 16.62105,7.97412 12.01141,3.61631 13.51815,4.53534 26.46357,16.14134 7.54986,6.76868 15.226,15.01201 17.05809,18.3185 1.83211,3.30649 6.95147,9.06503 11.37635,12.79676 4.42488,3.73172 12.24102,10.84312 17.36921,15.80311 10.4334,10.09125 10.23629,11.6627 -1.46776,11.70165 -8.82851,0.0293 -15.08022,-4.37269 -20.29836,-14.29287 -2.27321,-4.32158 -4.87931,-7.71145 -5.79135,-7.53305 -4.45728,0.87186 -27.92643,9.24866 -31.69799,11.31389 -4.88446,2.67464 -13.5894,10.5184 -13.5894,12.24501 0,2.19914 3.367,1.12335 10.19261,-3.25663 3.77681,-2.42358 8.01705,-4.185 9.42275,-3.91428 1.40572,0.27071 4.15584,2.96469 6.11138,5.9866 3.4551,5.33919 3.75089,5.47565 10.46978,4.83005 6.11728,-0.58779 7.17614,-0.26462 9.18673,2.80391 2.11013,3.22047 2.07754,3.65508 -0.45604,6.08236 -1.5007,1.43773 -7.8782,5.79528 -14.17224,9.68345 -9.58275,5.91977 -12.1031,6.89018 -15.49852,5.96741 -2.23015,-0.60611 -4.91786,-0.77081 -5.9727,-0.36603 -1.05485,0.40478 -5.17968,5.70427 -9.16631,11.77665 -3.98663,6.07239 -9.56262,13.26367 -12.39106,15.98065 -7.30154,7.01376 -10.59909,14.29846 -11.95813,26.41699 -1.25509,11.19167 -4.81822,18.8068 -10.56003,22.56899 -6.37041,4.17404 -19.73819,17.22403 -21.87373,21.35372 -3.05192,5.90176 -2.81078,13.75974 0.71114,23.17291 4.17545,11.15988 3.99331,14.83897 -0.79409,16.04053 -4.16872,1.04629 -4.35514,0.87788 -15.79801,-14.27035 -7.60238,-10.06411 -14.62771,-13.81304 -25.88507,-13.81304 -4.63448,0 -10.47898,0.71556 -12.9878,1.59015 -3.57789,1.24726 -6.54048,1.09303 -13.73923,-0.71523 -11.74942,-2.95137 -17.22214,-2.86987 -24.33715,0.3624 -11.82611,5.3725 -19.29898,19.08226 -19.29898,35.40601 0,12.92139 3.57856,18.20971 16.45033,24.30994 10.83625,5.13554 15.86109,4.59155 23.08617,-2.49932 5.11578,-5.02076 6.92998,-5.91693 11.97828,-5.91693 4.12303,0 6.86501,0.91563 8.93203,2.98263 l 2.98263,2.98264 -3.10545,11.33153 c -1.708,6.23234 -3.10545,12.69017 -3.10545,14.35074 0,3.31385 1.46391,3.82992 14.54597,5.12781 11.42199,1.1332 18.33587,3.76196 21.6533,8.23292 2.679,3.61052 2.74321,4.51299 1.03269,14.51279 -1.00317,5.86459 -1.35153,11.42726 -0.77415,12.3615 2.28135,3.69128 16.17106,11.09869 23.45508,12.50863 9.34309,1.80851 14.93147,0.48468 22.50267,-5.33065 16.94458,-13.01489 22.80042,-14.96724 32.605,-10.87062 6.69302,2.79651 11.23991,2.8624 18.72779,0.27134 3.14702,-1.08897 15.29072,-2.81806 26.98601,-3.84241 19.69835,-1.72533 21.75235,-1.67313 27.89404,0.70885 20.27991,7.86528 29.22992,9.74229 48.57762,10.18779 20.61796,0.47476 22.51164,1.14453 26.82627,9.48814 1.08052,2.08948 4.14822,5.14861 6.81711,6.79808 7.689,4.75205 17.48089,3.97023 43.05968,-3.43807 12.22401,-3.54039 23.57646,-6.43708 25.22766,-6.43708 3.18445,0 14.10561,7.01852 14.15722,9.09819 0.0167,0.67685 -3.32189,5.82652 -7.4193,11.44371 -10.72953,14.70924 -17.87302,29.19705 -19.05307,38.64181 -1.17567,9.40972 -3.26047,11.64429 -25.74422,27.5937 -34.77367,24.66756 -70.9603,43.12499 -107.62867,54.8973 -16.42816,5.27424 -70.38805,18.53721 -75.41792,18.53721 -1.92117,0 -4.12339,-1.17783 -4.89383,-2.61741 z"
     id="path3787"
     inkscape:connector-curvature="0" /><path
     style="fill:#280b0b;stroke-width:1.43046355"
     d="m 531.33822,289.13183 c -5.61504,-2.91321 -10.26762,-6.5451 -12.20096,-9.5243 -2.94991,-4.54569 -5.01286,-6.88835 -10.76251,-12.22179 -1.34409,-1.24678 -2.81661,-5.24008 -3.27227,-8.87399 -2.15979,-17.22448 -2.53124,-17.69432 -28.71851,-36.32544 -19.13437,-13.61329 -27.00128,-21.3653 -28.47051,-28.05468 -1.60537,-7.30917 -4.43713,-5.11706 -8.56969,6.63393 -2.1443,6.09735 -4.42919,11.64605 -5.07753,12.33045 -1.47801,1.56022 -12.36151,-5.69068 -16.0786,-10.71203 -2.72094,-3.67567 -2.72422,-4.00631 -0.17544,-17.65367 2.55887,-13.70133 2.67691,-13.94839 7.94954,-16.63828 7.04056,-3.59183 14.30504,-3.53805 17.62501,0.13049 3.53312,3.90404 4.99277,3.64961 12.66343,-2.20737 8.46879,-6.4664 16.38782,-9.23634 26.40595,-9.23634 6.36796,0 10.68352,1.25293 21.63472,6.2812 7.52401,3.45466 17.22041,7.86714 21.54756,9.80551 8.94586,4.00735 22.32201,13.78938 30.75497,22.49122 7.71545,7.96146 7.96674,15.19404 0.87118,25.07443 -4.72558,6.58026 -4.8866,7.27052 -6.24416,26.76637 -0.97923,14.06262 -0.93458,21.01913 0.15018,23.39992 0.92272,2.02515 5.44847,5.3581 11.25079,8.28557 l 9.70711,4.89757 -5.72186,1.54636 c -3.14702,0.8505 -10.32773,3.11401 -15.95714,5.03003 l -10.23528,3.48366 z"
     id="path3789"
     inkscape:connector-curvature="0" /><path
     style="fill:#280b0b;stroke-width:1.43046355"
     d="m 811.21589,486.51428 c -10.88767,-3.81799 -23.07897,-22.13785 -31.63743,-47.5415 -5.85256,-17.37188 -7.59599,-30.3682 -7.65041,-57.02964 -0.0525,-25.71178 -0.79788,-29.79904 -8.45419,-46.35639 -3.22596,-6.97635 -3.85228,-14.84133 -1.64436,-20.64859 1.38273,-3.63686 -0.25906,-5.2342 -2.18195,-2.12288 -0.52565,0.85052 -2.91924,2.74049 -5.31909,4.19992 -4.31619,2.62483 -4.43768,2.61586 -11.23628,-0.82924 -6.88332,-3.48804 -9.83655,-6.91935 -9.83655,-11.4289 0,-1.32468 -1.92183,-4.59735 -4.27072,-7.27259 -6.49315,-7.3953 -6.78315,-10.80704 -1.60454,-18.8772 2.44464,-3.80964 4.4448,-8.29353 4.4448,-9.96419 0,-4.66505 -5.05335,-8.34168 -13.90985,-10.12032 -11.96012,-2.40193 -13.26896,-4.14721 -13.26896,-17.69349 0,-10.35746 -0.44665,-12.14586 -5.12069,-20.50383 -2.81637,-5.03615 -7.01019,-10.5021 -9.3196,-12.14653 -5.59859,-3.98656 -7.95574,-8.91854 -9.9283,-20.77356 -1.16098,-6.97742 -4.43099,-15.62106 -11.11765,-29.38736 l -9.4729,-19.50253 -11.87258,-5.88819 c -14.93041,-7.40472 -21.15952,-7.9536 -15.17142,-1.33684 2.23105,2.46528 2.18919,2.83507 -0.66476,5.87295 l -3.0457,3.242 18.54554,14.10189 c 10.20004,7.75605 18.54554,14.58052 18.54554,15.16549 0,0.58498 -1.94416,1.86889 -4.32036,2.85315 -2.37618,0.98424 -5.94533,3.72073 -7.93143,6.08107 -3.30245,3.92475 -4.15617,4.21682 -9.98886,3.41735 -11.06383,-1.51646 -17.25463,-5.75016 -24.15892,-16.52157 -7.22269,-11.26812 -9.32714,-12.94086 -28.69977,-22.81223 -7.86755,-4.00894 -15.31869,-8.11154 -16.55808,-9.1169 -3.96439,-3.2158 -11.43567,-14.46318 -10.29313,-15.49544 0.60658,-0.54803 7.41526,-3.07279 15.13041,-5.61057 12.14315,-3.9943 13.96868,-5.00743 13.5894,-7.54181 -0.73505,-4.91173 -4.74121,-6.397978 -9.56495,-3.54852 -2.30383,1.3609 -6.50336,2.47437 -9.3323,2.47437 -4.90254,0 -5.14353,-0.22939 -5.14353,-4.896019 0,-4.146488 -1.14969,-5.867918 -7.50994,-11.244627 -10.15052,-8.580875 -44.12985,-31.064656 -46.94744,-31.064656 -1.24436,0 -3.72567,1.557513 -5.51404,3.461141 -6.13949,6.535191 -9.96339,7.135186 -23.63906,3.709123 -13.47886,-3.376757 -16.14609,-3.141477 -32.9723,2.908539 -7.14135,2.567736 -10.86505,2.988075 -22.17219,2.502845 -15.34176,-0.658371 -22.01957,-3.207286 -23.46229,-8.955551 -0.83213,-3.315484 -1.56517,-3.626097 -8.55748,-3.626097 -5.24137,0 -8.7207,0.829196 -11.05884,2.635554 -2.32573,1.796776 -8.26648,3.224975 -18.66655,4.487582 l -15.25509,1.852024 -0.8656,4.614048 c -1.2384,6.601257 -4.88617,9.193304 -15.28073,10.858248 -12.06773,1.932944 -15.56865,4.297884 -15.56865,10.516916 0,4.543799 -0.44036,4.996699 -6.7947,6.988235 -3.73709,1.171253 -8.98634,2.514225 -11.66499,2.984385 -6.52779,1.14576 -8.71912,3.22153 -8.71912,8.25935 0,2.31566 -0.5956,5.32317 -1.32355,6.68337 -1.76358,3.29527 -27.62006,28.59517 -32.63142,31.929 -4.21469,2.80384 -14.52754,6.09289 -15.63424,4.98618 -0.36557,-0.36557 1.23702,-4.1092 3.56132,-8.31918 2.32429,-4.20999 3.92214,-8.45916 3.55078,-9.4426 -0.37137,-0.98344 -2.71362,-1.79794 -5.20501,-1.80998 -5.85473,-0.0283 -6.62961,-0.62694 -12.83783,-9.91779 l -5.20802,-7.79399 4.61233,-4.03664 c 2.53678,-2.22016 8.25386,-6.58167 12.70462,-9.69226 11.55405,-8.074992 14.45159,-12.170165 13.3258,-18.833704 -1.39993,-8.286067 0.21886,-11.131948 8.40523,-14.776669 9.14249,-4.070407 13.67265,-8.812576 14.74781,-15.438025 0.68002,-4.190482 0.18441,-5.750943 -2.7625,-8.697848 l -3.59119,-3.591193 15.93764,-5.104424 c 26.45314,-8.472273 61.30839,-15.471245 101.06449,-20.293865 28.66206,-3.476854 87.76746,-3.469812 113.70758,0.01355 42.77461,5.74397 73.09681,14.833159 110.1457,33.016578 42.63375,20.924438 77.2396,45.885569 114.94621,82.91048 l 21.96609,21.56896 -0.77604,9.56651 c -1.17885,14.53179 0.69502,19.50391 10.27128,27.25392 6.74754,5.46075 1.96546,12.96797 -9.22819,14.48696 -11.17448,1.5164 -11.98617,2.93167 -3.97318,6.9277 5.97058,2.97748 6.97926,4.08584 6.97926,7.66906 0,4.08667 -0.19658,4.19889 -8.08055,4.61325 l -8.08054,0.42468 2.01891,8.15811 c 1.11041,4.48695 2.68118,11.93714 3.4906,16.55601 1.59345,9.09281 4.6494,15.88627 12.39142,27.54661 5.97287,8.9958 8.97652,10.70685 9.01666,5.13641 0.0774,-10.74396 1.71318,-36.86172 2.34835,-37.49571 0.39911,-0.39837 3.40716,-0.72431 6.68457,-0.72431 5.49881,0 5.99516,-0.31707 6.42823,-4.10661 0.71825,-6.28493 -0.58394,-9.70347 -7.59875,-19.94832 -7.26558,-10.61109 -7.61592,-11.8622 -3.6722,-13.11389 4.00294,-1.27049 4.67198,-4.8796 2.92811,-15.79573 -0.84562,-5.29344 -1.24748,-9.91443 -0.89301,-10.26892 1.88119,-1.88117 28.08691,38.13329 40.10952,61.24469 13.23097,25.4343 25.19525,56.30668 22.22358,57.34528 -0.67916,0.23737 0.65742,7.90786 2.97017,17.04553 11.04148,43.62472 14.59928,89.39757 10.52968,135.46937 -0.71742,8.12184 -1.23334,9.30154 -5.09501,11.64996 -2.36322,1.43716 -7.79009,7.8308 -12.05972,14.20808 -8.57208,12.80362 -9.98554,13.43151 -21.30241,9.46299 z"
     id="path3791"
     inkscape:connector-curvature="0" /><path
     style="fill:#280b0b;stroke-width:1.43046355"
     d="m 668.16954,244.26356 c -2.36027,-1.44307 -5.01131,-3.53272 -5.89122,-4.64366 -2.22215,-2.80564 -16.28097,-37.83113 -16.28097,-40.56166 0,-3.55409 6.55601,-2.67092 12.67394,1.70732 3.02327,2.16358 13.31703,7.77461 22.87503,12.46897 l 17.37818,8.53519 v 9.70322 c 0,5.33677 -0.26148,9.70322 -0.58106,9.70322 -0.31959,0 -7.23613,-2.84637 -15.3701,-6.32527 -8.13396,-3.4789 -15.03721,-6.07709 -15.34054,-5.77376 -0.30332,0.30333 2.81466,4.43712 6.92885,9.18619 l 7.48036,8.63469 -4.79054,-0.005 c -2.6348,-0.003 -6.72167,-1.18604 -9.08193,-2.62911 z"
     id="path3793"
     inkscape:connector-curvature="0" /><path
     style="fill:#280b0b;stroke-width:1.43046355"
     d="m 583.17092,236.50606 c -2.37373,-1.21148 -4.56071,-4.77165 -6.95642,-11.32433 l -3.49423,-9.55734 5.35798,-4.74729 c 7.38033,-6.53915 10.64547,-8.2138 16.12982,-8.27277 3.10437,-0.0334 5.87505,1.11034 8.11421,3.3495 2.83617,2.83617 3.21895,4.20053 2.3076,8.22516 -1.56349,6.90463 -5.47797,14.12152 -10.56997,19.48724 -4.88485,5.14742 -5.86613,5.40334 -10.88899,2.83983 z"
     id="path3795"
     inkscape:connector-curvature="0" /><path
     style="fill:#280b0b;stroke-width:1.43046355"
     d="m 446.44768,598.79484 c -5.59356,-4.07791 -18.02495,-8.78527 -36.26482,-13.73229 -8.66415,-2.34989 -8.92981,-2.55093 -5.72185,-4.32996 1.85029,-1.02611 4.84147,-1.88846 6.64707,-1.91634 3.11113,-0.048 44.36993,9.82495 54.29324,12.99205 5.63223,1.79757 5.90343,4.35892 0.87994,8.31039 -5.43147,4.2724 -12.83523,3.77821 -19.83358,-1.32385 z"
     id="path3797"
     inkscape:connector-curvature="0" /><path
     style="fill:#280b0b;stroke-width:1.43046355"
     d="m 482.20872,608.25326 c -11.12929,-4.85037 -9.4917,-9.89515 4.02306,-12.39349 9.8212,-1.81555 12.88179,-1.06394 15.0506,3.69608 0.89456,1.96335 3.24523,4.30728 5.2237,5.20874 1.97848,0.90145 3.59723,2.09892 3.59723,2.66105 0,3.05912 -21.32276,3.69176 -27.89459,0.82762 z"
     id="path3801"
     inkscape:connector-curvature="0" /><path
     style="fill:#ffffff;stroke-width:1.43046355"
     d="M 402.81854,865.32143 C 317.0961,859.09593 233.20142,826.00682 164.98295,771.51608 146.11206,756.44261 114.91832,725.22232 99.599371,706.07682 58.487934,654.69609 28.911165,592.93149 14.659906,528.69934 7.301572,495.53444 5.9381629,481.07241 5.9616212,436.43444 5.9861173,389.82188 7.8857047,372.65632 17.200848,334.87152 55.782944,178.3719 178.24155,56.757502 334.84878,19.41341 371.21028,10.742756 389.39781,8.8460956 435.00397,8.9688724 465.84028,9.051888 479.7917,9.656612 489.36159,11.325004 l 12.87417,2.244454 -12.87417,-0.795418 c -36.34406,-2.245483 -81.0619,-0.464089 -117.29801,4.672722 -32.45661,4.60103 -83.72085,16.785007 -94.59449,22.482286 l -3.65198,1.913468 3.70601,2.428275 c 2.76407,1.811087 3.70602,3.643382 3.70602,7.20901 0,6.204962 -4.307,11.553715 -12.74753,15.830857 -9.38815,4.757336 -10.79786,6.889734 -10.42621,15.771159 0.29892,7.143703 0.0162,7.806839 -5.42513,12.722717 -3.15728,2.852407 -6.22143,5.187356 -6.80922,5.188776 -0.58781,0.001 -4.90512,3.43591 -9.59405,7.63219 l -8.52531,7.62961 4.76785,7.43006 c 5.62137,8.76013 9.29055,11.63668 14.84315,11.63668 3.56899,0 3.94397,0.39586 3.0489,3.21855 -0.56134,1.7702 -2.53584,5.61966 -4.38778,8.55435 -4.60095,7.29089 -4.3602,8.69525 1.28182,7.47745 9.11056,-1.96645 16.2975,-6.94601 31.2957,-21.68359 13.43803,-13.20452 15.29526,-15.62678 15.99783,-20.86485 0.8563,-6.38422 3.89803,-9.60257 9.07557,-9.60257 4.44383,0 16.70074,-4.25602 17.9931,-6.247818 0.57803,-0.890851 1.06081,-3.31111 1.07285,-5.378351 0.0303,-5.19206 2.57695,-6.850465 13.11066,-8.537649 11.05511,-1.770695 15.3492,-4.370371 16.46925,-9.970597 0.4682,-2.340934 1.46516,-4.635655 2.21548,-5.099381 0.75032,-0.463727 7.87527,-1.753182 15.83321,-2.865456 7.95794,-1.112276 15.46819,-2.885994 16.68942,-3.941594 5.85456,-5.060497 17.85443,-4.320331 19.23658,1.186534 1.24636,4.9659 9.54844,8.187302 23.31316,9.046054 10.90455,0.68031 13.28512,0.313708 26.23478,-4.0401 14.01423,-4.711732 14.39651,-4.758094 23.90517,-2.899198 19.62838,3.83725 22.31285,3.723674 27.89821,-1.180329 2.76655,-2.429066 6.04671,-4.416484 7.28925,-4.416484 2.83575,0 38.11147,23.494945 46.5822,31.025481 4.98604,4.432623 6.27895,6.526078 6.18001,10.00648 -0.11301,3.977168 0.37126,4.481728 5.02756,5.237338 3.3008,0.53565 6.85933,0.0263 9.90113,-1.4171 5.44581,-2.58421 9.49049,-1.6695 8.80453,1.99116 -0.33087,1.7657 -4.70028,3.94873 -14.76798,7.37832 -7.86393,2.67888 -14.52922,5.05572 -14.81173,5.28188 -0.69409,0.55561 5.11439,8.92122 9.68419,13.94758 2.03701,2.24051 10.51707,7.5031 18.8446,11.69465 18.26127,9.19157 22.57746,12.66194 29.09798,23.39587 5.67997,9.35023 14.7245,15.32027 25.43388,16.78815 5.69523,0.78062 6.56237,0.49846 8.75574,-2.84905 1.33896,-2.04352 4.9999,-5.02426 8.1354,-6.62388 3.13552,-1.59962 5.70094,-3.45204 5.70094,-4.11647 0,-0.66444 -8.34549,-7.55391 -18.54554,-15.30996 l -18.54553,-14.10189 2.78923,-2.96899 c 2.55628,-2.72104 2.60502,-3.23198 0.58363,-6.11793 -2.02289,-2.88806 -1.99677,-3.14892 0.31529,-3.14892 1.38649,0 7.56093,2.36514 13.72099,5.25588 l 11.2001,5.25589 8.64166,17.98914 c 5.27453,10.97988 9.63412,22.47517 11.18874,29.50242 3.08028,13.92336 4.61688,17.01995 11.74623,23.67097 5.36504,5.00509 7.01691,8.4449 4.05543,8.4449 -2.34489,0 -27.17998,-12.77796 -35.39286,-18.21007 -5.58055,-3.69106 -8.4478,-4.74772 -11.08609,-4.08555 -1.95729,0.49125 -3.55869,1.52206 -3.55869,2.29069 0,0.76862 3.60624,10.41017 8.01385,21.42564 8.61614,21.53335 12.22472,26.29364 21.2099,27.97928 9.80896,1.84016 10.32017,0.59177 3.24442,-7.92312 -3.58668,-4.3162 -6.30877,-8.06011 -6.04907,-8.31981 0.25969,-0.2597 6.49117,2.0963 13.84773,5.23557 l 13.37555,5.70775 0.75084,-10.26212 c 0.72878,-9.96089 0.80639,-10.13613 2.64418,-5.97071 1.04427,2.36689 1.8544,8.99563 1.80646,14.78125 -0.0751,9.06386 0.35438,10.93115 3.15928,13.73604 1.78541,1.78541 5.78429,3.68913 8.88643,4.2305 15.23429,2.65865 17.79531,6.97608 11.28122,19.01824 -4.9385,9.12948 -4.8845,11.95765 0.35844,18.77291 2.2076,2.86963 4.66795,7.44725 5.46747,10.17248 1.05017,3.57971 3.23383,6.03799 7.86754,8.85702 7.8606,4.78218 10.50663,4.97249 15.88536,1.14249 l 4.19126,-2.98443 -0.873,5.48774 c -0.54413,3.42051 -0.0652,7.64317 1.27144,11.2096 1.17943,3.14702 3.80681,10.09079 5.83862,15.4306 3.43286,9.02193 3.7349,11.75416 4.26948,38.62252 0.6581,33.07537 3.06764,45.42195 13.56868,69.52629 10.01034,22.97799 19.72396,33.00511 34.2185,35.32288 l 5.70243,0.91185 7.19393,-10.66094 c 3.95666,-5.86352 9.61404,-12.60243 12.57197,-14.97536 4.97837,-3.99378 5.45941,-5.0471 6.47272,-14.17329 1.60278,-14.43498 1.46923,-58.04583 -0.23013,-75.151 -1.84556,-18.57659 -6.21421,-43.61029 -10.71078,-61.37613 -2.31645,-9.15221 -3.09925,-15.00242 -2.3715,-17.72356 0.9479,-3.54433 1.76225,-1.89473 6.39117,12.94644 61.54783,197.33378 -26.18763,410.03848 -209.26764,507.34576 -49.80505,26.47146 -106.96034,43.27678 -163.78808,48.15846 -15.8119,1.35828 -52.6301,1.64916 -67.94702,0.53678 z m 128.74172,-48.36646 c 39.2521,-9.84428 55.33632,-15.45524 83.7803,-29.22667 24.95124,-12.08041 43.30762,-23.09416 65.66267,-39.3974 18.22352,-13.29017 19.51717,-14.79879 21.04509,-24.54218 1.56792,-9.99854 7.07012,-21.23271 18.46867,-37.70862 l 8.80777,-12.73107 -4.11404,-3.59756 c -8.47616,-7.41209 -9.4679,-7.41628 -35.36334,-0.14955 -34.27389,9.61788 -43.80112,8.96239 -51.70449,-3.55734 -1.95111,-3.09077 -4.68337,-6.2129 -6.07167,-6.93806 -1.38831,-0.72516 -11.21427,-1.655 -21.83546,-2.06632 -20.4322,-0.79126 -30.76584,-2.9186 -44.8249,-9.22793 l -8.40442,-3.77169 -23.32956,2.39787 c -12.83125,1.31881 -25.03562,3.04651 -27.12083,3.83931 -5.48277,2.08454 -11.57098,1.77819 -19.31392,-0.97186 -6.36266,-2.25982 -7.19417,-2.26079 -13.07382,-0.0153 -3.45344,1.31888 -9.49409,5.06951 -13.42365,8.33471 -12.56472,10.44047 -20.62734,11.83695 -34.7358,6.01638 -13.95167,-5.7559 -16.4722,-10.40261 -13.03886,-24.03767 3.09425,-12.28837 -3.56529,-18.32723 -23.16473,-21.00576 -6.61091,-0.90348 -12.75261,-2.20823 -13.64821,-2.89948 -1.1924,-0.92031 -0.7029,-4.78782 1.82844,-14.44598 l 3.45678,-13.18919 -3.69627,-3.21854 c -6.02473,-5.24605 -13.72164,-4.41851 -21.09187,2.26772 -3.32613,3.01743 -7.15272,5.88575 -8.50351,6.37403 -3.51293,1.26983 -15.31749,-2.55305 -21.1337,-6.8441 -7.08534,-5.22741 -8.48964,-8.64326 -8.53108,-20.75129 -0.0441,-12.88454 3.83759,-22.59836 11.83703,-29.62197 6.10044,-5.35627 12.59384,-6.89606 22.86742,-5.42261 8.22878,1.18019 18.40674,1.35339 32.46268,0.55244 11.9246,-0.67948 18.50692,2.55701 26.77231,13.1638 12.72998,16.33611 12.25983,15.91721 16.63278,14.81966 2.2172,-0.55648 4.37374,-1.90425 4.79232,-2.99505 0.41858,-1.0908 -0.96041,-7.38954 -3.06442,-13.9972 -5.23255,-16.43288 -4.39558,-20.24671 6.93514,-31.60089 4.79961,-4.80956 10.6577,-10.34249 13.01796,-12.29542 7.9257,-6.55784 9.33351,-9.21899 11.34408,-21.44352 2.57163,-15.63577 3.83441,-18.61997 11.30191,-26.70866 3.43003,-3.71537 9.61705,-11.80766 13.74891,-17.98287 l 7.51247,-11.22765 5.94035,0.85945 c 5.47134,0.79161 6.98507,0.185 19.17215,-7.68298 10.45881,-6.7522 13.23179,-9.24095 13.23179,-11.87552 0,-5.07711 -2.71438,-6.7662 -10.87327,-6.7662 -6.99633,0 -7.61759,-0.3007 -10.41428,-5.04073 -1.63574,-2.7724 -3.92968,-5.40742 -5.09762,-5.8556 -1.16795,-0.44818 -5.604,1.17643 -9.85789,3.61026 -9.0712,5.19001 -11.00653,5.56635 -7.25017,1.40982 5.26539,-5.82631 11.19831,-9.00173 26.63094,-14.25345 l 15.57464,-5.30004 2.29751,3.77448 c 7.32157,12.02818 9.24236,14.29036 14.08486,16.58828 5.64026,2.67648 16.68888,2.46483 19.52779,-0.37408 1.6178,-1.6178 -9.02189,-12.92686 -23.69388,-25.18453 -4.61046,-3.85178 -10.54447,-10.38273 -13.18672,-14.51321 -2.64224,-4.13049 -10.77866,-12.74549 -18.08093,-19.14442 -11.98932,-10.50617 -14.44837,-12.00103 -25.35685,-15.41453 -8.20919,-2.56883 -13.78145,-5.31725 -17.38994,-8.57731 -7.20923,-6.5131 -21.78707,-12.35494 -27.94703,-11.19932 -2.58933,0.48575 -5.06417,1.45973 -5.49966,2.16437 -1.89555,3.06705 -1.00131,28.1119 1.1911,33.35907 2.09254,5.00815 2.04598,6.32477 -0.65685,18.57783 -1.59995,7.25322 -3.22004,14.72803 -3.60017,16.61067 l -0.69117,3.423 -4.8323,-4.68365 c -5.19581,-5.03597 -7.15016,-9.05172 -8.56937,-17.60806 -1.01418,-6.11442 -6.01547,-10.07792 -14.79504,-11.72497 -2.82093,-0.52921 -7.54814,-2.19637 -10.50491,-3.7048 -11.31118,-5.77053 -10.09674,-22.69123 2.84891,-39.69389 1.99669,-2.62243 10.43294,-10.60689 18.74724,-17.74323 8.3143,-7.13634 15.69538,-13.48681 16.4024,-14.11213 0.73796,-0.65271 0.21239,-2.77473 -1.23392,-4.98208 l -2.5194,-3.84512 3.67413,0.92215 c 12.55433,3.15094 15.97886,7.45345 15.40875,19.35922 -0.0968,2.02385 -2.58266,5.74015 -6.03811,9.02726 -3.23038,3.07298 -5.60302,5.85762 -5.27254,6.18811 1.53698,1.53697 31.79702,10.6691 35.35293,10.6691 6.02033,0 11.01562,-4.83349 14.44755,-13.97958 3.01291,-8.02939 3.02187,-8.29006 0.44995,-13.08416 -1.44331,-2.69034 -6.25688,-7.53485 -10.69682,-10.76557 -4.43994,-3.23071 -10.9811,-9.44446 -14.53587,-13.80833 -5.47839,-6.7253 -8.93495,-9.17453 -22.68409,-16.07341 -8.92146,-4.47651 -18.04055,-8.1311 -20.26463,-8.12131 -3.86178,0.017 -12.40653,6.66247 -12.40653,9.64889 0,0.69761 2.89669,4.66194 6.43709,8.80961 3.54039,4.14769 6.43708,8.13238 6.43708,8.8549 0,0.72251 -2.20626,1.31366 -4.9028,1.31366 -6.07018,0 -10.8323,-5.3787 -10.8323,-12.23485 0,-7.22606 -1.28128,-9.2221 -5.91978,-9.2221 -4.21228,0 -4.6111,0.47906 -6.10153,7.32905 -1.14894,5.28043 -5.99088,10.92761 -7.82068,9.12128 -0.79696,-0.78675 -2.09617,-5.46514 -2.88709,-10.39642 -2.84722,-17.75177 -16.73892,-34.66318 -28.47372,-34.66318 -5.46754,0 -13.16806,4.25054 -13.16806,7.26853 0,0.73646 1.93113,4.00487 4.29139,7.26312 2.36027,3.25825 4.29139,6.84355 4.29139,7.96734 0,1.12378 2.57484,4.59247 5.72186,7.70819 5.94147,5.8824 6.74389,7.61483 4.24288,9.16055 -1.61802,0.99999 -29.96067,-21.21037 -44.8997,-35.18511 -9.62206,-9.00097 -11.94309,-13.60935 -12.03836,-23.90209 -0.0556,-6.01683 -2.79768,-14.56685 -5.77707,-18.01394 -2.12622,-2.46 -3.81587,-2.60848 -19.99716,-1.75731 -9.72107,0.51134 -18.84238,1.55465 -20.26954,2.31845 -1.42716,0.7638 -3.34003,3.64664 -4.25081,6.40632 -1.83549,5.5616 -1.50333,5.42666 -13.79739,5.60521 -11.00256,0.1598 -13.58991,2.25849 -19.9972,16.22034 -2.61762,5.70397 -5.11883,10.37086 -5.55822,10.37086 -0.4394,0 -4.06004,-1.65254 -8.0459,-3.67233 -3.98585,-2.01978 -7.53617,-3.38316 -7.88961,-3.02972 -1.34278,1.34278 1.29723,7.97969 4.26666,10.72628 1.70362,1.57577 9.17066,5.19816 16.59341,8.04974 25.73026,9.88478 28.6893,13.3067 28.69743,33.18664 0.006,12.74093 -0.85983,17.2008 -9.67191,49.86522 -1.62738,6.03232 -2.2674,14.07958 -2.15376,27.08058 l 0.16167,18.49779 -6.28523,8.80798 c -14.30701,20.04947 -20.83483,39.85087 -23.70203,71.89742 -1.72709,19.30375 -1.67584,20.3998 1.52751,32.67283 5.68884,21.7956 19.72532,63.22423 22.96037,67.76744 3.16507,4.44494 9.64266,8.58722 13.42845,8.58722 1.62375,0 0.94239,-2.5567 -2.89451,-10.86117 -5.93026,-12.83528 -9.66107,-28.87403 -7.84557,-33.72814 1.07258,-2.86771 1.67819,-1.83845 4.35257,7.39726 4.26128,14.71589 8.37062,25.9537 14.12314,38.62251 3.60996,7.95023 5.15393,13.79142 5.96219,22.55631 1.264,13.70689 1.72849,14.40375 17.22126,25.83712 5.90067,4.35456 13.62517,10.44165 17.16557,13.52686 8.21066,7.15504 15.22212,10.65241 36.47682,18.19496 21.10802,7.4905 41.23815,16.99021 47.98574,22.64519 2.78952,2.33782 7.8396,9.39293 11.22239,15.678 5.18798,9.63903 7.19259,11.98604 12.80896,14.99688 10.42473,5.58852 21.61137,8.18058 35.3052,8.18058 h 12.47137 l -0.61769,12.91953 c -0.69943,14.62896 -2.1239,17.07484 -11.8912,20.41772 -7.62648,2.61018 -12.2353,10.71507 -13.24484,23.29187 -0.72819,9.0716 -0.67591,9.23713 4.44185,14.0638 2.8483,2.68628 8.89087,6.99116 13.42793,9.56638 4.74099,2.69096 15.89267,12.16349 26.22186,22.27354 12.93791,12.66342 19.24923,17.84663 22.5298,18.50274 5.2778,1.05556 5.13382,0.42465 2.41148,10.56707 -4.06562,15.14696 -2.36728,19.40204 7.15231,17.91954 3.14702,-0.49009 19.56159,-4.36204 36.47682,-8.60431 z m -25.47489,-206.91149 7.56658,-1.62273 -3.53134,-2.31105 c -4.23865,-2.77391 -7.33522,-5.90459 -9.44803,-9.55212 -3.17115,-5.47461 -26.33086,-1.25208 -26.33086,4.80071 0,8.07482 15.19911,12.23337 31.74365,8.68519 z m -41.72826,-7.69007 c 4.88551,-2.5264 8.04314,-7.50547 6.03399,-9.51463 -0.7451,-0.7451 -14.16169,-4.57807 -29.81464,-8.51771 -25.86785,-6.51058 -28.94846,-7.00378 -33.82414,-5.41505 -6.64618,2.16564 -6.91556,4.97198 -0.59117,6.15843 11.48369,2.15437 32.33713,9.74938 39.52307,14.3947 8.59667,5.55728 12.38707,6.14478 18.67289,2.89426 z m 92.6264,-313.06637 c 8.0821,-2.63184 15.0237,-5.11412 15.42575,-5.51617 0.40206,-0.40204 -3.49849,-2.8342 -8.66786,-5.40479 -5.16938,-2.57059 -10.09998,-5.98387 -10.95693,-7.58508 -1.90923,-3.56743 -0.25505,-40.29789 2.00904,-44.61022 0.83033,-1.58148 3.02331,-4.69501 4.87332,-6.91895 4.67515,-5.62013 4.64018,-15.46973 -0.077,-21.65414 -6.62579,-8.68694 -23.13513,-20.70774 -37.50095,-27.30529 -7.77221,-3.56942 -17.6717,-8.23112 -21.99885,-10.35933 -6.50459,-3.19915 -9.72614,-3.85566 -18.59603,-3.78965 -11.47425,0.0854 -16.31623,1.8417 -25.95419,9.41416 -6.18867,4.86239 -7.49845,4.99407 -12.278,1.23447 -4.72678,-3.71809 -9.72949,-3.6165 -17.6104,0.35762 -4.70767,2.37394 -6.47687,4.157 -6.74191,6.7947 -0.19763,1.96689 -1.09018,7.11656 -1.98345,11.44371 -2.30768,11.17889 -1.88355,15.57091 1.89429,19.61608 3.35741,3.59496 15.26215,11.21363 16.00055,10.23983 0.22162,-0.29228 2.28836,-5.62868 4.59273,-11.85869 4.60165,-12.44081 6.90956,-14.68574 8.24308,-8.01815 1.27925,6.39623 9.34487,14.15348 30.25589,29.09911 10.22493,7.30799 19.97848,15.34648 21.67456,17.86328 1.81232,2.68932 3.50038,8.16553 4.09421,13.28201 0.86008,7.41052 1.89199,9.73376 6.93472,15.61281 3.25835,3.79874 6.98188,8.43824 8.2745,10.31 2.47141,3.57867 17.58126,12.47667 21.25243,12.51528 1.18013,0.0129 8.75834,-2.13076 16.84046,-4.7626 z m 38.77268,-55.99774 c 8.97243,-10.21903 12.60674,-22.83129 8.03476,-27.88327 -5.95144,-6.57627 -15.90813,-4.75705 -26.8524,4.90629 l -5.40319,4.77078 3.5596,9.8066 c 1.95778,5.39362 4.67317,10.62085 6.0342,11.61607 4.55925,3.33379 9.90865,2.15746 14.62703,-3.21647 z"
     id="path3803"
     inkscape:connector-curvature="0" /><path
     style="fill:#ffffff;stroke-width:1.43046355"
     d="m 756.27336,271.01044 c -4.6148,-7.49881 -7.49984,-13.99677 -8.09767,-18.23841 -0.51079,-3.62409 -2.14564,-11.08227 -3.633,-16.57374 -1.48735,-5.49147 -2.70428,-10.48022 -2.70428,-11.0861 0,-0.60587 3.50241,-1.10159 7.78313,-1.10159 4.28072,0 8.20357,-0.6803 8.71745,-1.51177 2.20066,-3.56074 -0.9569,-8.54393 -7.53075,-11.88485 l -6.71857,-3.41448 6.3843,-0.97971 c 9.28066,-1.42418 13.63661,-3.41986 15.64158,-7.16619 2.35067,-4.39226 0.95804,-8.21543 -4.07566,-11.18891 -6.06782,-3.58435 -8.75777,-10.49666 -8.75777,-22.50465 v -10.29767 l 9.41764,11.66437 c 8.46337,10.48244 9.54755,12.5624 10.69971,20.52709 2.06764,14.29317 1.78917,16.58677 -2.23656,18.42102 -1.96688,0.89617 -3.57616,2.08064 -3.57616,2.63215 0,0.5515 3.21855,5.75073 7.15232,11.55383 5.81392,8.57669 7.15232,11.69208 7.15232,16.64845 v 6.09734 h -6.28404 c -4.41064,0 -6.5429,0.67456 -7.15232,2.26269 -0.47755,1.24448 -0.86828,10.2564 -0.86828,20.02649 0,21.89345 -1.20292,22.5436 -11.31339,6.11464 z"
     id="path3805"
     inkscape:connector-curvature="0" /></svg>