<?xml version="1.0" encoding="utf-8"?>
<!-- Generator: Adobe Illustrator 16.0.0, SVG Export Plug-In . SVG Version: 6.00 Build 0)  -->
<!DOCTYPE svg PUBLIC "-//W3C//DTD SVG 1.1//EN" "http://www.w3.org/Graphics/SVG/1.1/DTD/svg11.dtd" [
	<!ENTITY ns_flows "http://ns.adobe.com/Flows/1.0/">
	<!ENTITY ns_extend "http://ns.adobe.com/Extensibility/1.0/">
	<!ENTITY ns_ai "http://ns.adobe.com/AdobeIllustrator/10.0/">
	<!ENTITY ns_graphs "http://ns.adobe.com/Graphs/1.0/">
]>
<svg version="1.1" id="Layer_1" xmlns:x="&ns_extend;" xmlns:i="&ns_ai;" xmlns:graph="&ns_graphs;"
	 xmlns="http://www.w3.org/2000/svg" xmlns:xlink="http://www.w3.org/1999/xlink" xmlns:a="http://ns.adobe.com/AdobeSVGViewerExtensions/3.0/"
	 x="0px" y="0px" width="864px" height="864px" viewBox="0 0 864 864" enable-background="new 0 0 864 864" xml:space="preserve">
<path fill-rule="evenodd" clip-rule="evenodd" d="M537.478,337.175c4.96,1.917,8.495,7.104,7.12,11.666
	c-1.994,6.611-4.233,13.203-7.043,19.502c-5.727,12.837-13.146,24.696-22.217,35.473c-2.286,2.716-3.384,5.371-1.865,9.057
	c2.604,6.317,4.727,12.832,7.201,19.676c6.975-1.861,12.902-3.666,18.935-4.994c7.274-1.602,12.214-6.431,16.419-11.892
	c7.34-9.533,13.507-20.08,13.349-32.378c-0.097-7.538-1.86-15.612-5.019-22.456c-14.312-31.014-38.602-50.158-71.908-57.836
	c-2.227-0.513-4.418-1.182-6.614-1.816c-0.416-0.12-0.781-0.417-1.821-0.993c12.762-0.941,24.131,1.484,35.4,5.638
	c25.798,9.507,46.81,25.736,64.524,46.221c10.138,11.722,19.015,24.55,28.222,37.054c3.685,5.004-0.98,8.366-3.65,11.365
	c-15.768,17.708-33.981,32.513-54.482,44.453c-5.12,2.982-10.38,5.725-16.835,9.268c3.816,2.719,7.02,6.337,10.97,7.584
	c17.286,5.453,32.994,0.312,47.278-9.348c5.351-3.619,10.356-8.59,13.75-14.044c4.163-6.693,7.78-14.105,7.54-22.554
	c-0.038-1.36,0.562-2.738,0.866-4.107c0.485,0.082,0.971,0.163,1.456,0.245c-1.15,7.326-1.675,14.821-3.588,21.942
	c-3.421,12.733-7.724,25.183-16.797,35.353c-8.399,9.415-17.776,17.332-31.285,15.541c-9.898-1.312-19.744-3.745-29.303-6.689
	c-8.913-2.746-17.454-6.734-26.088-10.346c-6.493-2.717-8.198-9.375-10.653-14.848c-4.982-11.105-9.396-22.531-13.079-34.132
	c-2.155-6.788-3.083-14.135-3.454-21.288c-0.902-17.405-0.384-34.803,4.898-51.625c3.808-12.127,9.772-23.161,18.437-32.782
	c-7.75,21.719-11.258,43.71-6.377,67.487C517.76,368.602,530.475,355.274,537.478,337.175z"/>
<path fill-rule="evenodd" clip-rule="evenodd" d="M606.189,366.161c11.68-14.361,15.348-31.527,17.473-49.18
	c1.163-9.657,2.842-19.366,2.75-29.037c-0.206-21.746-2.168-43.472-13.861-62.564c-6.457-10.543-16.884-16.355-29.245-18.358
	c-14.318-2.321-27.498,0.801-38.418,10.076c-7.92,6.727-10.77,9.968-6.347,19.362c2.26,4.799,5.811,6.351,10.876,5.089
	c7.743-1.928,13.776-6.133,18.026-12.92c0.885-1.412,2.051-2.647,3.372-3.716c-5.196,24.116-19.012,40.359-43.07,46.981
	c-3.489,0.961-7.434,1.533-10.905,0.883c-2.621-0.49-5.836-2.695-7.041-5.036c-5.836-11.335-8.839-23.421-3.952-35.798
	c2.165-5.484,5.54-10.965,9.715-15.077c7.485-7.374,15.707-14.093,24.146-20.382c9.644-7.187,21.448-9.214,32.921-11.331
	c6.77-1.249,13.851-1.179,20.781-1.065c5.2,0.084,9.668-1.195,13.935-4.014c6.39-4.221,9.476-3.871,14.046,2.455
	c12.824,17.752,21.405,37.332,24.296,59.188c1.928,14.577,0.846,28.944-1.747,43.454c-4.562,25.532-14.465,48.736-28.204,70.479
	c-2.499,3.954-5.509,7.585-8.282,11.365C607.031,366.729,606.61,366.444,606.189,366.161z"/>
<path fill-rule="evenodd" clip-rule="evenodd" d="M806.737,617.352c-1.695-2.815-3.448-5.598-5.078-8.45
	c-9.76-17.083-22.399-31.548-38.003-43.639c-9.155-7.093-17.49-15.245-26.178-22.938c-4.937-4.371-10.021-8.595-14.725-13.204
	c-13.116-12.854-24.221-27.054-28.32-45.507c-0.707-3.186-0.688-6.575-0.623-9.862c0.019-0.932,1.201-2.239,2.17-2.692
	c11.375-5.322,14.082-14.84,6.682-25.913c8.126-6.765,13.207-15.651,15.109-26.273c15.24,6.44,19.566,5.338,23.687-6.565
	c2.741,2.754,5.405,5,7.553,7.661c12.922,16.008,22.969,33.797,28.174,53.623c4.613,17.569,7.423,35.647,10.334,53.613
	c1.681,10.373,1.99,20.968,2.877,31.466c0.019,0.214-0.438,0.468-1.234,1.265c-1.257-1.577-2.444-3.128-3.7-4.621
	c-1.249-1.485-2.348-3.223-3.892-4.312c-8.215-5.806-7.425-14.806-9.03-23.242c-4.021-21.132-12.764-39.864-29.645-54.146
	c-7.739-6.548-15.116-2.347-17.624,5.341c-3.308,10.141-0.893,19.747,5.097,27.562c8.414,10.979,18.264,20.864,27.612,31.114
	c7.975,8.745,16.36,17.126,24.103,26.067c8.557,9.882,12.205,22.456,17.554,34.086c2.046,4.45,4.362,8.775,6.495,13.187
	c0.87,1.799,1.58,3.675,2.362,5.516C807.908,616.773,807.323,617.062,806.737,617.352z"/>
<path fill-rule="evenodd" clip-rule="evenodd" d="M725.218,285.209c-1.851-0.563-3.667-1.361-5.56-1.637
	c-3.331-0.484-7.231-1.833-9.93-0.64c-3.208,1.418-7.912,5.638-7.49,7.749c0.789,3.95,4.158,8.226,7.658,10.559
	c3.609,2.406,8.361,2.145,11.993-1.997c10.471-11.938,9.938-25.147,3.898-38.403c-6.296-13.816-17.433-23.307-31.043-29.58
	c-6.762-3.116-14.102-4.976-22.478-7.849c-0.734,38.39-11.475,72.696-31.787,103.833c-0.596-0.202-1.191-0.403-1.788-0.605
	c1.919-4.644,3.658-9.372,5.79-13.916c7.185-15.316,10.709-31.453,10.08-48.293c-0.43-11.51,0.257-23.743-3.437-34.295
	c-5.878-16.792-14.991-32.452-22.734-48.592c-0.735-1.531-1.456-3.069-2.183-4.604c0.288-0.424,0.575-0.847,0.863-1.271
	c2.714,0.706,5.879,0.748,8.064,2.233c9.551,6.49,20.856,7.688,31.375,11.273c9.312,3.173,18.489,7.031,27.221,11.56
	c16.883,8.757,30.648,21.716,42.906,35.909c11.658,13.499,18.719,29.685,21.956,47.384c2.023,11.068-3.237,19.706-9.3,28.021
	c-5.22,7.16-12.6,10.886-20.7,14.419c-10.156,4.431-25.973-2.527-32.638-11.885c-0.755-1.06-1.066-2.45-1.871-3.458
	c-6.923-8.666-4.937-17.239,0.415-25.592c5.883-9.181,18.551-11.33,27.341-4.836c1.378,1.019,2.592,2.26,3.882,3.398
	C725.555,284.466,725.387,284.838,725.218,285.209z"/>
<path fill-rule="evenodd" clip-rule="evenodd" d="M288.083,179.714c1.855,8.085,4.353,16.086,5.437,24.273
	c2.423,18.306,3.693,36.771,6.399,55.029c0.913,6.157,4.003,12.346,7.386,17.708c7.641,12.112,9.449,25.103,7.862,40.608
	c-1.297-2.201-2.176-3.135-2.434-4.217c-2.607-10.96-7.488-20.718-15.379-28.806c-3.896-3.993-8.84-3.333-11.498,1.461
	c-6.12,11.041-8.291,22.995-7.374,35.483c0.419,5.703,4.417,8.416,11.714,8.75c13.07,0.599,24.792-2.939,36.132-9.639
	c12.187-7.201,21.556-17.177,29.287-28.387c6.37-9.237,7.634-20.371,4.673-31.719c-3.358-12.872-8.646-24.45-19.016-33.306
	c-2.256-1.927-3.809-4.675-5.686-7.045c0.396-0.454,0.793-0.908,1.189-1.361c10.547,8.157,21.417,15.94,31.491,24.646
	c4.347,3.756,7.164,9.34,10.456,14.242c2.648,3.944,2.625,6.78-2.36,9.783c-6.845,4.123-6.415,8.291-0.201,14.071
	c0.76,0.707,0.942,2.585,0.677,3.758c-2.391,10.561-8.159,19.559-14.716,27.762c-8.536,10.681-17.655,21.002-27.41,30.575
	c-10.337,10.145-21.393,19.639-32.797,28.572c-4.47,3.501-10.563,5.43-16.226,6.794c-9.147,2.204-14.604-1.796-19.931-12.252
	c-4.256-8.354-4.039-17.322-2.716-25.847c3.277-21.109,7.43-42.095,11.711-63.032c2.666-13.039,6.427-25.852,9.259-38.861
	c1.395-6.408,2.318-13.015,2.535-19.562c0.402-12.128,0.128-24.278,0.135-36.419c0.001-0.993,0-1.986,0-2.979
	C287.149,179.768,287.616,179.741,288.083,179.714z M310.29,343.28c4.708,4.97,6.465,4.923,11.613-0.026
	c1.663-1.599,3.627-2.903,5.182-4.591c4.997-5.425,9.867-10.967,14.786-16.464c-0.302-0.309-0.604-0.617-0.907-0.925
	c-1.628,0.984-3.34,1.853-4.871,2.97c-14.408,10.517-30.097,18.075-47.619,22.019c-3.176,0.715-6.195,4.124-8.303,7.008
	c-1.932,2.644,1.188,7.277,4.569,7.729c4.575,0.612,9.079-1.614,9.669-6.395c0.627-5.088,3.484-6.466,7.429-7.741
	C304.646,345.957,307.299,344.569,310.29,343.28z"/>
<path fill-rule="evenodd" clip-rule="evenodd" d="M379.713,479.926c19.205-2.275,33.828-11.26,45.344-24.555
	c5.13-5.922,7.523-14.213,10.608-21.964c-19.799,8.011-37.885,9.774-49.473-11.664c-7.755-14.348-2.568-31.169,9.271-44.039
	c4.822-5.243,16.125-8.446,19.832-6.331c-13.116,5.872-18.955,16.855-15.897,29.212c3.627,14.66,15.292,14.813,25.162,7.785
	c9.241-6.58,14.568-15.861,13.008-27.751c-1.872-14.266-10.388-23.814-23.108-29.387c-6.03-2.641-12.809-3.574-20.391-5.584
	c13.954-12.438,27.775-24.757,42.819-38.167c5.279,11.273,10.732,21.051,14.472,31.445c3.482,9.679,6.191,19.896,7.333,30.089
	c1.392,12.411,0.995,25.047,0.951,37.584c-0.02,5.387-0.514,10.914-1.794,16.131c-8.176,33.329-29.504,53.458-62.74,60.938
	C390.386,484.733,385.133,483.939,379.713,479.926z"/>
<path fill-rule="evenodd" clip-rule="evenodd" d="M247.686,214.768c-1.036-4.787-2.303-9.207-2.807-13.712
	c-0.186-1.657,0.982-4.013,2.3-5.195c5.328-4.781,6.685-11.027,6.283-17.535c-0.324-5.254-5.453-8.147-10.432-6.83
	c-6.89,1.823-10.886,7.651-8.793,13.492c2.21,6.167,4.884,12.17,7.421,18.217c5.612,13.375,2.131,25.847-3.854,38.005
	c-2.174,4.415-4.69,8.67-7.22,12.897c-2.477,4.138-5.943,6.49-11.108,5.915c-7.039-0.783-14.109-1.271-21.158-1.97
	c-0.691-0.068-1.324-0.722-2.901-1.635c1.768-0.232,2.503-0.484,3.195-0.396c22.01,2.787,24.645-3.855,30.532-19.19
	c5.603-14.596-2.008-25.937-15.666-30.061c-9.476-2.861-19.539-1.352-29.01,2.094c-8.263,3.007-15.923,7.086-22.193,13.371
	c-3.149,3.156-6.325,6.354-9.006,9.898c-9.426,12.454-18.601,25.097-27.996,37.575c-1.049,1.393-2.894,2.188-4.369,3.26
	c-0.262-0.403-0.524-0.807-0.787-1.21c5.259-9.179,10.497-18.369,15.781-27.533c12.411-21.523,24.647-43.027,41.343-61.852
	c11.443-12.903,24.485-21.625,41.249-24.914c3.56-0.698,7.195-1.199,10.815-1.379c15.741-0.784,31.492-1.368,47.233-2.143
	c3.429-0.168,4.494,1.319,4.107,4.457c-0.685,5.551-0.878,11.207-2.075,16.643c-3.417,15.516-12.035,27.566-25.388,36.204
	C251.546,212.298,249.903,213.345,247.686,214.768z"/>
<path fill-rule="evenodd" clip-rule="evenodd" d="M539.262,192.996c-13.432,4.623-23.089,14.36-32.271,24.366
	c-7.26,7.911-11.567,17.623-12.353,28.593c-1.298,18.153-7.245,34.727-17.007,50c-0.238,0.373-0.604,0.782-0.995,0.909
	c-0.421,0.137-0.943-0.04-1.703-0.104c10.895-28.491,8.147-54.711-12.048-78.542c-0.331,0.182,0.01-0.162,0.366-0.179
	c9.035-0.414,12.888-6.12,9.854-14.804c-2.897-8.293-9.291-12.564-17.503-14.148c-5.429-1.048-10.069,2.458-12.27,8.473
	c-4.97-5.435-9.413-11.451-14.974-16.145c-13-10.975-25.046-23.705-41.265-29.842c-9.381-3.55-19.791-4.385-29.742-6.419
	c-1.363-0.279-2.753-0.428-4.13-0.637c-0.008-0.445-0.017-0.89-0.025-1.334c7.996-1.062,15.978-2.266,23.993-3.147
	c7.553-0.83,15.232-0.805,22.691-2.105c7.213-1.257,10.801,4.079,15.338,7.315c12.64,9.015,24.622,19.062,39.172,24.972
	c6.795,2.76,13.991,4.527,20.974,6.84c1.125,0.373,2.327,1.039,3.079,1.922c4.277,5.024,8.428,10.156,12.991,15.7
	c7.537-2.348,13.562-10.625,23.124-8.656c8.288,1.707,16.532,3.63,24.796,5.457C539.323,191.984,539.293,192.49,539.262,192.996z"/>
<path fill-rule="evenodd" clip-rule="evenodd" d="M679.148,385.24c12.433-13.856,23.769-28.096,28.372-46.626
	c-0.538,15.692-1.706,31.253-8.019,46.413c8.432,2.887,12.448,9.28,13.084,17.564c0.934,12.16-0.326,24.152-10.254,32.653
	c-3.618,3.099-9.074,4.821-13.933,5.534c-9.025,1.323-13.408-4.962-11.229-13.447c2.281,0.923,5.239,3.205,6.779,2.479
	c2.135-1.006,4.926-4.892,4.368-6.442c-1.137-3.166-3.934-6.211-6.842-8.045c-1.288-0.812-5.116,0.814-6.746,2.405
	c-7.129,6.959-13.338,14.94-20.885,21.373c-11.381,9.7-23.185,19.092-37.653,24.082c-2.618,0.902-5.428,1.251-8.613,1.268
	c23.921-20.208,40.354-45.351,51.877-73.991c11.54-28.686,13.511-58.814,14.067-89.285
	C678.876,328.928,683.782,356.625,679.148,385.24z"/>
<path fill-rule="evenodd" clip-rule="evenodd" d="M309.74,441.682c12.313,7.776,23.758,15.811,35.966,22.441
	c8.719,4.736,12.692,11.857,15.058,20.681c2.592,9.669,5.605,19.251,7.579,29.044c0.644,3.196-0.733,7.276-2.321,10.369
	c-9.918,19.318-25.905,32.393-45.091,41.58c-8.952,4.288-18.58,7.177-27.942,10.587c-1.469,0.536-3.156,0.475-5.127-0.308
	c5.129-2.636,10.664-4.703,15.312-8.013c14.289-10.175,29.893-19.026,39.278-34.678c2.059-3.434,3.438-7.614,3.91-11.596
	c1.449-12.246,0.137-24.238-6.822-34.797c-3.004-4.559-6.358-9.175-12.679-10.131c-4.791-0.724-10.141,1.866-11.731,6.409
	c-2.105,6.014,0.636,14.498,5.879,18.195c4.538,3.201,11.03-0.474,11.609-6.724c0.267-2.889,0.045-5.822,0.523-8.767
	c3.218,5.613,4.735,11.868,3.116,17.797c-0.807,2.955-4.94,5.562-8.148,7.172c-4.936,2.479-10.237,4.674-15.628,5.688
	c-6.399,1.203-10.081-3.938-13.649-8.242c-9.401-11.338-9.658-24.021-4.738-37.143c2.171-5.791,4.876-11.418,7.77-16.891
	C304.305,449.738,307.372,445.447,309.74,441.682z"/>
<path fill-rule="evenodd" clip-rule="evenodd" d="M352.569,332.229c0.453-0.623,0.782-1.422,1.378-1.843
	c17.813-12.604,28.346-30.339,33.561-50.909c1.761-6.944,6.151-11.501,9.58-16.669c11.158-16.82,3.956-31.08-5.655-42.373
	c-17.104-20.096-39.957-30.318-65.032-36.333c-2.545-0.61-5.203-0.836-7.824-1.024c-2.336-0.167-4.694-0.035-6.98-0.846
	c19.05-3.093,37.77-1.42,55.999,4.568c18.255,5.997,34.604,15.722,49.502,28.023c0.615-0.296,1.231-0.592,1.847-0.889
	c0.063-2.893,0.771-5.949,0.083-8.65c-3.519-13.816-13.338-23.406-23.327-32.544c-12.339-11.287-27.267-18.127-43.369-22.195
	c-5.835-1.475-11.978-1.729-17.977-2.565c-1.452-0.202-2.891-0.501-4.335-0.756c0.067-0.511,0.134-1.022,0.202-1.534
	c6.689,0.525,13.417,0.759,20.06,1.632c19.916,2.616,38.156,10.233,54.453,21.5c8.944,6.184,17.138,14.286,23.556,23.067
	c7.067,9.669,7.484,21.646,4.255,33.326c-3.966,14.344-8.229,28.624-17.744,40.5c-3.688,4.603-7.858,8.842-12.017,13.042
	c-7.275,7.347-12.335,16.111-17.101,25.174C378.518,317.556,367.154,326.652,352.569,332.229z"/>
<path fill-rule="evenodd" clip-rule="evenodd" d="M675.318,576.383c-0.817,5.551-1.595,10.831-2.236,15.188
	c-15.09,4.218-26.264,0.137-31.862-14.115c-4.679,12.23-8.549,24.637-14.097,36.24c-6.187,12.938-14.573,24.701-24.609,35.073
	c-5.483,5.666-11.461,10.852-17.121,16.352c-0.605,0.589-1.064,2.048-0.762,2.74c2.616,5.984,5.422,11.887,7.975,17.392
	c3.484-10.354,8.425-19.937,20.834-24.628c9.267-3.503,18.196-8.793,24.865-16.76c1.985-2.371,3.824-4.865,6.828-6.774
	c-1.927,3.245-3.476,6.805-5.863,9.666c-4.416,5.292-9.659,9.911-13.908,15.32c-2.867,3.651-4.435,8.297-6.981,12.24
	c-0.808,1.252-2.857,2.258-4.409,2.367c-4.45,0.313-8.937,0.11-13.409,0.11c0.002,0.403,0.004,0.807,0.005,1.21
	c3.417,0,6.835-0.05,10.25,0.026c1.285,0.028,2.841-0.052,3.8,0.607c4.628,3.177,3.274,8.12,2.755,12.366
	c-0.414,3.385-2.045,6.828-6.872,6.049c-1.371-0.222-2.837,0.141-3.988,0.217c0.446-2.418,1.423-4.718,1.05-6.773
	c-0.234-1.288-2.336-2.63-3.878-3.211c-3.613-1.361-4.817,1.266-6.041,4.027c-0.619,1.398-2.143,3.56-3.062,3.466
	c-4.638-0.475-9.21-1.578-12.666-2.242c0-3.633,0-6.174,0-8.716c-2.555,0.638-5.11,1.275-9.122,2.275
	c1.496-4.25,2.135-8.221,4.132-11.312c4.961-7.679,10.719-14.838,15.838-22.421c11.347-16.81,21.416-34.369,25.502-54.466
	c1.615-7.943,0.586-16.388,1.558-24.508c1.272-10.621-1.631-22.036,5.807-31.587c5.97-7.665,11.228-10.815,19.241-8.286
	c5.122,1.616,8.431,6.494,8.859,11.878c0.484,6.077,0.832,12.234,2.137,18.158c1.372,6.228,4.946,11.292,11.726,12.748
	C670.006,576.819,672.627,576.383,675.318,576.383z"/>
<path fill-rule="evenodd" clip-rule="evenodd" d="M463.628,544.257c-11.018-5.501-20.92-12.285-26.839-23.179
	c-2.111-3.887-3.34-8.481-3.929-12.893c-0.465-3.48-0.691-5.153-4.971-5.325c-14.558-0.584-28.576-3.886-41.823-10.114
	c-0.842-0.396-1.58-1.012-2.413-2.858c1.853-0.232,3.826-1,5.54-0.615c20.828,4.67,37.929-1.977,53.604-15.761
	c16.412-14.434,22.856-33.316,25.67-53.698c1.88-13.628,2.664-27.622,1.929-41.345c-0.946-17.658-5.766-34.718-13.047-50.961
	c-1.407-3.138-2.607-6.368-3.894-9.531c10.335-4.64,13.582-13.478,16.212-23.38c0.987,3.926,2.294,7.803,2.903,11.786
	c1.843,12.046,3.712,24.102,5.026,36.213c2.361,21.749-1.204,43.028-5.567,64.251c-0.708,3.44,0.701,7.266,0.738,10.917
	c0.092,9.057,0.696,18.196-0.275,27.153c-1.235,11.396-3.593,22.69-5.908,33.938c-1.412,6.858-5.33,12.464-11.256,16.315
	c-4.305,2.798-5.494,6.489-5.838,11.515c-0.876,12.835,3.777,23.597,10.923,33.673C461.385,541.729,462.552,542.961,463.628,544.257
	z"/>
<path fill-rule="evenodd" clip-rule="evenodd" d="M744.946,559.248c-2.22-1.128-4.593-2.03-6.635-3.42
	c-12.468-8.488-24.868-17.076-37.275-25.653c-9.61-6.644-19.384-13.07-28.754-20.037c-15.467-11.5-29.512-24.421-38.533-41.897
	c-1.702-3.299-2.161-6.013,2.143-8.07c13.69-6.548,25.203-15.861,34.295-28.084c0.353-0.474,0.986-0.737,0.912-0.684
	c2.799,5.68,4.427,12.314,8.548,16.486c4.919,4.98,11.837,3.308,17.661-0.375c5.247,7.208,2.762,15.576-5.921,20.536
	c-3.1,1.771-6.25,3.499-9.146,5.57c-4.018,2.871-5,7.25-2.926,11.316c3.491,6.848,6.906,14.087,11.967,19.71
	c12.519,13.911,25.813,27.138,39.089,40.346c4.709,4.687,10.262,8.525,15.43,12.751C745.516,558.244,745.23,558.746,744.946,559.248
	z"/>
<path fill-rule="evenodd" clip-rule="evenodd" d="M675.612,571.073c-11.181-2.659-17.064-9.519-15.134-21.185
	c2.588-15.639-7.454-25.278-21.797-25.846c-5.697-0.226-13.731,6.423-16,12.499c-0.449,1.205-1.447,2.204-2.192,3.298
	c-0.601-1.191-1.648-2.353-1.729-3.578c-0.594-9.07-6.1-15.965-10.702-23.016c-4.85-7.429-11.062-13.962-16.549-20.987
	c-0.759-0.973-0.777-2.524-1.372-4.636c11.919,5.848,23.164,7.815,35.047,5.554c5.152-0.98,10.304-2.022,15.502-2.651
	c1.242-0.15,2.915,0.974,3.974,1.959c6.745,6.277,13.131,12.965,20.124,18.947c5.095,4.358,10.844,7.987,16.496,11.641
	c2.234,1.445,2.856,2.702,1.842,5.175c-4.628,11.281-6.101,23.16-6.509,35.241C676.53,565.922,675.985,568.34,675.612,571.073z"/>
<path fill-rule="evenodd" clip-rule="evenodd" d="M780.051,468.783c0.569-6.271,1.056-12.551,1.735-18.809
	c0.495-4.563,1.475-9.08,1.843-13.65c1.808-22.435,0.175-44.613-7.106-65.985c-5.585-16.395-12.626-32.174-27.101-43.129
	c-2.156-1.632-2.335-3.251-0.264-5.335c2.545-2.561,4.971-5.302,7.067-8.236c8.139-11.392,8.892-15.575,6.681-31.606
	c16.245,28.454,26.786,58.899,31.77,91.365C799.779,406.642,792.598,438.035,780.051,468.783z"/>
<path fill-rule="evenodd" clip-rule="evenodd" d="M576.51,213.526c19.035,5.811,31.891,17.799,37.293,37.79
	c4.631,17.138,5.078,34.158,1.894,51.462c-1.328,7.213-2.461,14.463-3.682,21.696c-0.444,0.012-0.889,0.023-1.332,0.035
	c-0.328-1.277-1.097-2.619-0.919-3.82c2.301-15.495-0.94-30.253-7.194-44.147c-3.294-7.317-8.996-13.55-13.61-20.271
	c-6.548,5.439-11.693,10.374-17.483,14.374c-9.299,6.424-18.923,12.401-28.613,18.227c-4.749,2.855-9.915,5.045-14.992,7.31
	c-1.144,0.51-2.708,0.075-4.307-0.615c15.556-8.673,27.697-20.64,38.563-34.272C573.429,247.114,577.424,231.155,576.51,213.526z"/>
<path fill-rule="evenodd" clip-rule="evenodd" d="M41.239,319.575c15.111,13.102,32.363,19.389,51.005,22.46
	c18.742,3.088,36.91,0.683,54.504-6.205c4.25-1.664,8.283-3.905,12.348-6.013c8.069-4.185,21.365,6.61,22.48,13.063
	c0.459,2.658,0.401,5.341-2.827,6.483c-7.553,2.671-14.949,6.057-22.712,7.795c-10.232,2.291-20.713,3.754-31.166,4.699
	c-11.133,1.007-21.898-1.883-32.636-4.684c-14.759-3.849-27.45-11.202-38.483-21.555c-3.779-3.547-7.397-7.284-10.848-11.149
	C41.958,323.409,41.881,321.572,41.239,319.575z"/>
<path fill-rule="evenodd" clip-rule="evenodd" d="M387.243,509.827c5.972,32.295,16.694,45.265,33.156,52.314
	c-3.509,4.078-6.88,7.939-10.188,11.854c-5.591,6.616-9.039,13.902-8.668,22.946c0.345,8.412-0.171,16.782,4.312,24.504
	c4.942,8.515,15.565,13.542,24.668,10.301c5.23-1.862,9.136-6.402,10.359-11.831c2.161-9.587,2.03-18.051-10.497-20.34
	c-2.784-0.51-6.952,0.654-8.799,2.626c-1.743,1.861-1.788,5.849-1.508,8.799c0.106,1.117,3.21,1.95,4.771,2.815
	c-2.771,2.116-5.812,1.277-7.264-2.449c-3.196-8.214,1.932-15.302,11.827-16.349c9.462-1.001,16.084,3.162,18.514,12.494
	c2.974,11.42,3.965,22.985-6.147,31.672c-8.806,7.563-29.301,12.858-37.873,0.366c-3.414-4.976-5.811-11.1-7.023-17.037
	c-2.303-11.285-3.644-22.787-4.938-34.249c-0.679-6.002-1.459-12.159,3.123-17.558c1.25-1.472,1.291-4.691,0.762-6.831
	c-2.723-11.006-6.145-21.848-8.634-32.901c-1.258-5.584-1.17-11.49-1.437-17.263C385.701,512.442,386.721,511.123,387.243,509.827z"
	/>
<path fill-rule="evenodd" clip-rule="evenodd" d="M317.445,312.979c2.709-3.458,5.16-7.162,8.176-10.327
	c10.342-10.852,16.828-23.432,16.953-38.592c0.077-9.32-3.876-17.36-10.425-23.962c-2.521-2.541-5.604-3.857-9.417-2.536
	c-4.551,1.578-6.906,5.203-6.784,9.394c0.093,3.174,2.062,6.557,4.008,9.263c0.636,0.883,4.061,0.408,5.74-0.411
	c0.716-0.349,0.914-3.765,0.099-4.709c-0.887-1.028-3.214-0.88-4.933-1.086c-0.553-0.066-1.167,0.371-1.802,0.595
	c1.774-4.311,2.301-4.526,6.125-4.709c3.48-0.167,5.514,1.711,6.163,4.59c0.825,3.656,1.537,7.579,1.051,11.219
	c-0.466,3.486-2.203,6.927-6.598,7.767c-4.208,0.804-8.038,1.072-11.555-2.226c-7.05-6.609-9.033-15.191-9.474-24.205
	c-0.399-8.142,0.329-16.342-0.139-24.477c-0.347-6.027-1.827-11.987-2.765-17.982c-0.119-0.756-0.016-1.547-0.016-3.244
	c6.633,4.999,13.225,8.935,18.523,14.178c10.188,10.084,20.942,20.087,26.711,33.511c5.458,12.702,7.587,26.263,1.32,39.393
	c-4.591,9.619-11.422,17.757-20.386,23.865c-3.091,2.106-6.14,4.276-9.208,6.417C318.357,314.131,317.901,313.555,317.445,312.979z"
	/>
<path fill-rule="evenodd" clip-rule="evenodd" d="M206.055,291.34c5.691-2.119,11.499-3.975,17.051-6.41
	c13.16-5.772,24.572-14.024,29.58-27.936c2.079-5.775,1.243-12.821,0.791-19.222c-0.434-6.138-2.087-12.189-3.164-18.056
	c17.571-7.182,26.267-22.135,32.042-39.577c0.554,0.199,1.108,0.397,1.662,0.596c-0.442,7.291-0.708,14.598-1.371,21.869
	c-0.821,9.013-2.494,17.974-2.882,26.996c-1.19,27.647-17.355,43.681-40.714,54.982c-9.068,4.388-18.634,6.119-28.196,8.289
	c-1.444,0.328-3.072-0.149-4.614-0.253C206.178,292.192,206.117,291.766,206.055,291.34z"/>
<path fill-rule="evenodd" clip-rule="evenodd" d="M124.487,388.115c-8.932-0.292-16.32,2.098-22.54,9.086
	c-0.543-1.462-1.201-2.421-1.211-3.386c-0.084-7.824-0.044-15.649-0.05-23.475c-0.002-3.292,1.36-4.943,4.875-4.267
	c13.951,2.686,27.846,2.876,41.646-0.989c0.278-0.078,0.632,0.118,0.824,0.158c-8.789,19.627-13.771,39.92-11.713,61.671
	c2.014,21.276,6.805,41.595,19.41,60.052C135.59,475.487,117.571,418.176,124.487,388.115z"/>
<path fill-rule="evenodd" clip-rule="evenodd" d="M807.818,670.784c-2.732-3.02-5.588-5.938-8.169-9.082
	c-4.556-5.549-8.649-11.509-13.51-16.767c-3.031-3.278-8.268-2.496-11.336,0.507c-6.814,6.672-7.806,14.879-5.085,23.284
	c1.814,5.607,5.366,10.654,8.17,16.008c-0.127,0.01-1.231,0.427-1.586,0.079c-7.108-6.975-16.08-12.102-20.371-21.869
	c-2.549-5.803-1.638-10.467,1.631-15.567c6.564-10.245,13.138-20.528,18.872-31.243c3.49-6.522,5.42-13.878,8.48-22.001
	c4.524,6.373,8.81,12.278,12.956,18.279c6.903,9.992,6.639,21.08,5.073,32.472c-0.585,4.251-0.779,8.754-0.002,12.928
	c0.559,2.997,3.037,5.633,4.636,8.442c0.631,1.109,1.199,2.255,1.797,3.384C808.855,670.021,808.337,670.402,807.818,670.784z"/>
<path fill-rule="evenodd" clip-rule="evenodd" d="M406.889,193.876c-9.664-8.724-21.586-12.733-33.756-16.156
	c-17.876-5.028-36.02-8.62-54.686-7.631c-9.708,0.514-19.399,1.837-29.016,3.328c-2.925,0.454-3.708-0.159-3.728-2.676
	c-0.046-5.718-0.282-11.457,0.177-17.137c0.104-1.299,2.665-3.358,4.167-3.425c8.052-0.354,16.262-1.133,24.161,0.01
	c12.964,1.876,25.993,4.242,38.521,7.985c18.927,5.654,35.444,15.949,49.548,29.933c1.747,1.732,3.679,3.278,5.525,4.91
	C407.499,193.304,407.194,193.59,406.889,193.876z"/>
<path fill-rule="evenodd" clip-rule="evenodd" d="M333.665,425.974c-3.441,2.075-4.037,4.824-1.994,7.705
	c4.462,6.29,8.731,12.816,13.936,18.455c6.076,6.581,13.065,12.319,19.55,18.894c-2.717-1.435-5.568-2.664-8.127-4.34
	c-10.983-7.194-22.109-14.207-32.701-21.947c-4.455-3.255-7.843-8.039-11.42-12.373c-0.835-1.012-1.008-3.191-0.571-4.538
	c4.323-13.334,8.057-26.76,8.431-40.916c0.032-1.216,1.188-2.402,1.856-3.668c16.457,11.754,41.736,62.503,36.689,73.725
	C351.536,445.831,346.679,432.417,333.665,425.974z"/>
<path fill-rule="evenodd" clip-rule="evenodd" d="M626.591,428.662c6.184-22.24-1.339-40.456-13.333-57.988
	c11.502-8.719,18.553-20.698,24.873-33.24c0.536,0.3,1.071,0.6,1.606,0.899c-0.76,2.723-1.471,5.46-2.29,8.166
	c-1.425,4.705-2.953,9.379-4.353,14.091c-0.324,1.091-0.742,2.466-0.358,3.397c1.126,2.734,2.168,6.967,4.113,7.513
	c2.209,0.62,6.479-1.366,7.911-3.514c7.156-10.732,12.276-22.414,13.944-35.404c0.695-5.422,1.698-10.804,2.652-16.776
	C671.787,327.975,645.031,414.7,626.591,428.662z"/>
<path fill-rule="evenodd" clip-rule="evenodd" d="M288.967,549.631c15.821,2.347,27.895-4.884,39.881-15.341
	c-1.586,7.271-6.22,10.808-10.397,14.165c-9.695,7.793-20.838,12.987-32.701,16.854c-5.893,1.921-11.522,4.827-16.978,7.821
	c-2.205,1.211-3.628,3.846-5.407,5.833c-0.397-0.184-0.794-0.367-1.191-0.551c8.137-23.815,16.274-47.631,24.69-72.264
	c6.863,7.978,13.25,16.102,24.057,16.655c10.301,0.527,17.292-7.282,26.349-12.844c-2.477,7.942-7.042,12.404-13.062,15.128
	c-7.314,3.309-14.808,6.313-22.427,8.832C293.941,536.514,288.402,542.567,288.967,549.631z"/>
<path fill-rule="evenodd" clip-rule="evenodd" d="M441.454,302.855c0.614,0.458,1.165,1.07,1.852,1.345
	c2.412,0.964,4.954,2.63,7.28,2.394c1.381-0.14,3.12-3.223,3.496-5.21c0.527-2.787,0.637-6.04-0.308-8.647
	c-2.763-7.632-7.852-9.564-16.289-5.868c-7.237,3.171-14.177,7.06-21.107,10.887c-9.023,4.983-17.907,10.219-27.84,14.708
	c2.908-5.861,6.094-11.604,8.652-17.613c3.197-7.508,9.83-11.659,15.333-16.963c2.649-2.554,4.901-5.521,7.673-8.689
	c9.846,2.771,19.324-1.239,28.582-5.47c3.838-1.754,6.061-2.014,8.248,2.086c6.231,11.679,10.785,23.688,5.109,36.729
	c-1.611,3.702-5.23,7.453-8.871,9.104c-4.169,1.891-8.191-1.375-11.178-4.694c-0.818-0.91-1.046-2.35-1.545-3.546
	C440.847,303.223,441.15,303.039,441.454,302.855z"/>
<path fill-rule="evenodd" clip-rule="evenodd" d="M177.227,354.836c-19.315,39.062-27.417,78.147-10.675,119.074
	c-2.691,1.792-5.194,3.457-8.268,5.504c-0.678-1.135-1.864-2.785-2.718-4.592c-10.25-21.697-11.989-44.877-10.678-68.266
	c0.785-13.994,4.507-27.623,10.565-40.441c0.329-0.696,0.583-1.705,1.15-1.967C163.23,361.075,169.909,358.117,177.227,354.836z"/>
<path fill-rule="evenodd" clip-rule="evenodd" d="M174.933,233.758c-12.749,15.462-16.46,34.053-20.235,52.566
	c-1.836,9.003-3.311,18.088-4.687,27.175c-0.741,4.891-0.846,9.875-1.428,14.794c-0.13,1.1-0.79,2.653-1.655,3.074
	c-12.519,6.092-25.873,9.097-40.175,10.847c0-4.752-0.332-9.065,0.174-13.276c0.185-1.534,2.122-3.651,3.67-4.105
	c16.835-4.944,26.424-16.482,31.071-32.921c4.496-15.902,10.4-31.245,19.967-44.88c2.647-3.772,5.922-7.125,9.093-10.498
	C171.848,235.343,173.515,234.668,174.933,233.758z"/>
<path fill-rule="evenodd" clip-rule="evenodd" d="M735.771,331.795c3.289-2.716,5.704-3.062,9.501,0.17
	c15.537,13.223,24.34,30.018,27.24,49.843c1.74,11.892,2.422,23.967,3.021,35.988c0.317,6.357-0.526,12.776-0.945,19.161
	c-0.051,0.77-0.723,1.498-1.79,2.245c-1.675-21.77-4.547-43.139-13.352-64.263c-2.131,8.206-3.658,15.375-5.918,22.304
	c-1.353,4.145-3.744,7.977-5.931,11.799c-0.423,0.739-2.063,0.781-3.142,1.145c0.106-0.963,0.125-1.945,0.336-2.885
	c0.921-4.096,2.548-8.148,2.743-12.272c0.9-19.105-0.364-37.979-7.99-55.888C738.521,336.737,737.16,334.477,735.771,331.795z"/>
<path fill-rule="evenodd" clip-rule="evenodd" d="M155.875,325.446c2.265-4.139,4.276-8.02,6.474-11.792
	c5.049-8.665,11.062-16.89,15.098-25.997c6.753-15.238,5.15-31.261,1.773-48.965c2.019,1.927,3.802,2.812,4.173,4.105
	c5.691,19.773,7.904,39.721,2.166,59.915c-0.492,1.731-1.413,3.341-2.138,5.006c-0.651,1.495-1.308,2.988-0.659,3.873
	c4.403,5.352,9.004,10.559,13.096,16.139c1.336,1.823,1.258,4.646,1.973,6.967c2.621,8.502,0.808,11.069-10.139,11.59
	c-0.966,0.046-2.576-1.353-2.927-2.401c-2.871-8.568-8.265-14.699-16.995-17.241C164.334,325.644,160.541,325.872,155.875,325.446z"
	/>
<path fill-rule="evenodd" clip-rule="evenodd" d="M414.029,581.986c5.628,0.433,10.673-0.116,13.85-5.576
	c3.112-5.349,1.882-10.443,0.063-15.707c-2.682-7.768-8.788-12.663-14.934-17.303c-8.455-6.384-15.562-13.747-19.853-23.531
	c-0.718-1.638-0.843-3.535-0.589-5.508c7.307,14.378,19.989,19.818,34.402,24.124c14.423,4.309,23.813,15.088,25.358,30.35
	c0.752,7.423-1.048,15.491-8.97,20.036c-6.253,3.589-12.317,2.31-18.403-0.165c-3.807-1.547-7.534-3.289-11.297-4.943
	C413.782,583.17,413.906,582.578,414.029,581.986z"/>
<path fill-rule="evenodd" clip-rule="evenodd" d="M703.397,536.124c25.579,18.213,51.157,36.426,76.523,54.486
	c-11.865,29.154-35.374,69.209-41.599,70.087c4.687-9.449,10.186-18.206,13.444-27.729c3.688-10.778,5.65-22.192,7.705-33.449
	c0.485-2.656-0.922-6.406-2.736-8.594c-5.728-6.907-11.78-13.601-18.221-19.849c-11.862-11.511-24.09-22.645-36.166-33.935
	C702.698,536.802,703.048,536.463,703.397,536.124z"/>
<path fill-rule="evenodd" clip-rule="evenodd" d="M305.695,615.91c5.516-6.82,11.031-13.641,16.546-20.461
	c0.195,0.061,0.389,0.122,0.584,0.183c-2.184,4.735-4.056,9.648-6.625,14.164c-3.88,6.819-5.631,13.692-5.969,21.778
	c-0.403,9.635,0.792,17.729,5.972,26.099c4.561,7.37,6.66,16.28,5.344,25.258c-0.411,2.804-2.138,5.577-3.814,7.98
	c-1.342,1.923-3.384,3.464-5.367,4.8c-1.567,1.057-3.49,2.078-5.302,2.169c-3.301,0.166-6.638-0.37-10.315-0.64
	c0.149-0.508,0.129-1.61,0.665-2.085c11.782-10.442,11.178-26.92-1.38-35.964c-6.492-4.675-7.178-6.804-2.62-13.696
	c5.608-8.48,8.786-17.822,11.278-27.51C305.026,617.293,305.361,616.602,305.695,615.91z"/>
<path fill-rule="evenodd" clip-rule="evenodd" d="M471.501,286.318c-0.378-15.294-4.771-28.714-15.025-40.158
	c-7.944,7.267-16.074,13.432-27.142,12.301c3.009-8.354,6.254-15.716,8.263-23.401c2.019-7.721,2.808-15.763,4.21-24.111
	c8.562,2.949,16.481,7.335,21.476,15.972c5.601,9.686,9.357,19.895,9.38,31.234c0.016,8.246,0.035,16.493-0.066,24.738
	C472.581,284.04,471.883,285.177,471.501,286.318z"/>
<path fill-rule="evenodd" clip-rule="evenodd" d="M341.767,559.821c-2.38,3.813-4.848,7.575-7.124,11.45
	c-7.49,12.752-14.975,25.61-26.287,35.392c-11.416,9.871-24.79,15.931-40.009,17.314c-13.862,1.261-18.18-8.665-16.369-19.249
	c1.38-8.062,5.042-15.733,7.688-23.578c0.611,0.078,1.223,0.157,1.834,0.236c0.344,1.397,1.146,2.859,0.958,4.182
	c-1.555,10.935,4.637,18.921,15.915,19.359c17.421,0.677,31.85-5.554,42.642-19.629c6.643-8.663,13.512-17.152,20.28-25.72
	C341.453,559.66,341.609,559.74,341.767,559.821z"/>
<path fill-rule="evenodd" clip-rule="evenodd" d="M366.47,373.838c0.39-15.699,4.709-30.443,11.631-44.202
	c1.975-3.925,7.51-6.384,11.833-8.747c15.908-8.696,31.954-17.145,48.052-25.487c2.539-1.315,5.595-1.675,8.45-2.302
	c0.615-0.135,1.396,0.487,2.101,0.761c-0.284,0.673-0.373,1.626-0.879,1.978c-9.925,6.888-20.366,13.125-29.739,20.688
	c-11.438,9.229-22.343,19.201-32.793,29.543c-6.953,6.883-13.142,14.686-16.429,24.249c-0.369,1.073-0.805,2.126-1.281,3.155
	C367.328,373.662,366.89,373.687,366.47,373.838z"/>
<path fill-rule="evenodd" clip-rule="evenodd" d="M426.221,441.355c-7.239,11.495-14.935,22.533-29.44,25.668
	c-3.836,0.828-7.79,1.137-11.59,2.084c-1.275,0.317-2.895,1.689-3.245,2.9c-3.393,11.73-4.229,23.636-2.449,35.788
	c1.642,11.212,2.386,22.565,4.319,33.719c1.361,7.858,4.052,15.485,6.146,23.216c0.239,0.882,0.467,1.766,0.882,3.339
	c-9.738-11.188-27.485-116.341-21.871-127.638c7.811,8.731,16.271,16.125,28.872,16.627
	C410.614,457.566,419.236,451.206,426.221,441.355z"/>
<path fill-rule="evenodd" clip-rule="evenodd" d="M726.092,565.478c11.21,9.159,20.229,20.427,29.879,32.957
	c-5.474,15.562-11.219,31.894-16.965,48.226c-0.434-0.033-0.867-0.066-1.3-0.1c-2.537-10.613-5.074-21.226-7.624-31.892
	c2.301-1.839,5.309-3.519,7.246-6.024c1.478-1.911,2.642-5.173,2.032-7.279c-0.619-2.141-3.367-4.704-5.564-5.134
	c-4.747-0.929-5.935-3.39-6.223-7.755c-0.38-5.731-1.533-11.411-2.364-17.111c-0.23-1.58-0.501-3.155-0.753-4.732
	C725.002,566.248,725.547,565.862,726.092,565.478z"/>
<path fill-rule="evenodd" clip-rule="evenodd" d="M465.597,647.519c3.353-5.792,6.706-11.585,10.059-17.377
	c0.378-0.039,0.756-0.077,1.134-0.116c0.145,8.05,0.767,16.129,0.273,24.14c-0.359,5.848-2.382,11.575-3.245,17.418
	c-0.258,1.743,0.725,3.76,1.427,5.538c3.36,8.511,7.069,16.894,10.127,25.51c1.343,3.785,0.474,7.356-4.106,9.252
	c-3.643,1.507-6.968,3.781-10.88,5.287c3.81-6.785,3.889-13.702,2.132-20.593c-0.928-3.64-3.971-5.705-7.88-5.551
	c-6.957,0.274-12.7,3.081-16.92,8.754c-1.054,1.418-2.169,2.79-3.256,4.184c-0.407-0.28-0.814-0.56-1.222-0.84
	c4.402-6.52,8.513-13.263,13.274-19.508c7.261-9.523,10.254-20.107,9.295-31.907c-0.129-1.58-0.809-3.115-1.233-4.671
	C464.916,647.198,465.256,647.358,465.597,647.519z"/>
<path fill-rule="evenodd" clip-rule="evenodd" d="M427.659,650.562c-6.57,5.403-14.041,7.662-22.361,8.698
	c-1.003,2.633-2.085,5.473-3.431,9.007c22.4,4.311,42.789,2.38,59.148-16.31c0.482,0.794,0.965,1.587,1.447,2.381
	c-4.326,4.767-8.077,10.276-13.091,14.155c-12.554,9.714-27.097,13.156-42.869,11.082c-5.179-0.682-13.534,1.529-22.224,6.047
	c5.002-14.639,10.025-29.34,15.211-44.518C407.008,647.312,415.576,653.962,427.659,650.562z"/>
<path fill-rule="evenodd" clip-rule="evenodd" d="M718.601,265.122c-1.425-0.36-2.345-0.515-3.211-0.823
	c-7.234-2.572-14.485-5.103-21.676-7.797c-3.159-1.184-4.589-0.062-6.227,2.763c-9.396,16.21-19.054,32.269-28.659,48.357
	c-0.705,1.182-1.695,2.192-2.554,3.283c-0.412-0.161-0.823-0.322-1.235-0.483c0.275-1.354,0.203-2.919,0.879-4.029
	c11.975-19.667,17.043-41.726,22.17-63.759c0.624-2.681,0.581-5.515,1.155-8.211c0.179-0.839,1.733-2.224,2.057-2.073
	c15.002,7.007,28.572,15.82,37.273,30.526C718.791,263.244,718.601,263.853,718.601,265.122z"/>
<path fill-rule="evenodd" clip-rule="evenodd" d="M366.796,433.352c-14.592-28.86-17.443-59.867-17.26-90.761
	c7.522-4.65,14.907-9.215,22.893-14.153C362.092,363.135,354.093,397.721,366.796,433.352z"/>
<path fill-rule="evenodd" clip-rule="evenodd" d="M729.065,332.8c0.693,1.002,1.715,1.91,2.031,3.02
	c4.718,16.56,9.645,33.165,9.397,50.558c-0.122,8.612-1.626,17.253-3.139,25.768c-0.421,2.372-1.152,5.896-5.412,5.943
	c-5.595,0.062-9.7-1.893-11.3-6.672c-2.021-6.04-1.963-12.359,1.322-17.765c6.273-10.32,8.524-21.763,9.203-33.335
	c0.411-7.017-1.993-14.192-3.058-21.308c-0.284-1.896-0.294-3.833-0.43-5.75C728.143,333.106,728.604,332.953,729.065,332.8z"/>
<path fill-rule="evenodd" clip-rule="evenodd" d="M606.687,653.914c19.04-15.141,31.479-34.675,38.452-57.992
	c8.472,5.705,17.364,4.711,27.583,2.21c-0.573,5.828-1.028,11.195-1.735,16.528c-0.072,0.546-1.606,1.103-2.538,1.297
	c-5.146,1.071-10.371,1.812-15.447,3.135c-2.177,0.566-4.377,1.93-6.021,3.502c-7.493,7.168-14.419,14.977-22.294,21.681
	c-5.106,4.347-11.497,7.187-17.312,10.702C607.145,654.622,606.915,654.268,606.687,653.914z"/>
<path fill-rule="evenodd" clip-rule="evenodd" d="M454.159,598.997c4.902-3.487,9.938-7.068,15.844-11.269
	c0.667,0.869,2.703,2.347,2.972,4.096c0.713,4.644,0.956,9.411,0.843,14.116c-0.146,6.108-0.405,12.27-1.35,18.293
	c-2.022,12.901-10.614,21.341-21.098,27.676c-5.778,3.492-12.534,5.44-18.982,7.706c-1.954,0.687-4.354,0.105-6.814-0.557
	c15.225-0.602,24.165-9.706,29.861-22.202C461.159,624.295,458.775,611.532,454.159,598.997z"/>
<path fill-rule="evenodd" clip-rule="evenodd" d="M394.557,356.263c-23.404,28.667-29.172,58.05-4.786,90.46
	c-2.767-0.829-5.368-0.837-6.73-2.141c-9.324-8.927-17.392-18.36-18.631-32.371c-0.74-8.364-3.085-16.675-0.578-24.908
	c1.28-4.203,3.919-8.142,6.557-11.752C376.562,367.098,384.505,360.634,394.557,356.263z"/>
<path fill-rule="evenodd" clip-rule="evenodd" d="M250.614,653.956c7.644,4.207,8.854,11.749,8.744,19.154
	c-0.085,5.806-3.022,11.146-7.469,15.547c5.243-7.419,4.207-15.085-0.458-21.546c-4.67-6.471-12.142-8.278-21.521-6.312
	c10.544-13.267,18.227-26.495,20.812-43.185c2.748,5.873,5.446,10.854,11.819,10.245c5.262-0.502,10.428-2.011,16.278-3.204
	c-0.631,0.915-1.094,2.065-1.938,2.736c-8.123,6.457-16.495,12.635-22.497,21.329C253.273,650.328,252.102,651.894,250.614,653.956z
	"/>
<path fill-rule="evenodd" clip-rule="evenodd" d="M796.846,686.497c2.171,2.727,4.342,5.453,5.919,7.433
	c-5.793,2.811-11.788,5.719-17.898,8.684c2.022-7.242,0.27-13.962-3.147-20.596c-1.84-3.573-2.953-7.577-3.991-11.494
	c-1.458-5.498,2.252-7.877,6.57-9.34c4.054-1.374,9.053,1.098,11.396,4.888c2.226,3.599,4.33,7.395,7.182,10.457
	c4.69,5.04,11.05,4.007,14.529-1.81c0.811-1.355,1.829-2.587,2.789-3.929c4.487,4.322-5.476,19.099-11.834,17.943
	c-3.36-0.61-6.438-2.785-9.643-4.253C798.094,685.152,797.47,685.825,796.846,686.497z"/>
<path fill-rule="evenodd" clip-rule="evenodd" d="M627.021,682.182c-2.439-7.567,1.249-15.146,7.691-18.89
	c4.775-2.775,9.379-5.989,13.591-9.56c8.556-7.252,7.113-16.637,4.926-26.366c5.211-1.103,10.581-2.402,16.023-3.236
	c0.972-0.148,3.025,1.469,3.25,2.547c2.96,14.18-1.895,26.315-13.666,33.477c-3.135,1.907-6.95,3.001-10.6,3.699
	C637.67,665.875,628.285,669.006,627.021,682.182z"/>
<path fill-rule="evenodd" clip-rule="evenodd" d="M321.166,364.657c7.035-6.688,14.086-13.393,21.138-20.097
	c0.516,0.179,1.031,0.359,1.547,0.539c0,5.265,0.23,10.542-0.042,15.793c-0.945,18.24,1.798,35.706,10.264,52.079
	c0.732,1.416,1.108,3.017,1.65,4.531c-0.494,0.243-0.989,0.485-1.483,0.727C343.22,400.38,332.201,382.532,321.166,364.657z"/>
<path fill-rule="evenodd" clip-rule="evenodd" d="M116.485,391.619c-4.744,32.607-1.712,62.373,9.816,91.238
	c-18.622-24.589-24.195-53.014-24.946-83.604C105.848,396.986,110.677,394.549,116.485,391.619z"/>
<path fill-rule="evenodd" clip-rule="evenodd" d="M381.467,722.985c3.126-3.818,6.688-6.677,8.088-10.357
	c1.088-2.856,0.018-6.943-1.164-10.08c-0.565-1.503-4.634-3.395-5.354-2.837c-3.129,2.426-5.762,5.568-8.242,8.713
	c-0.828,1.051-0.668,2.883-0.959,4.357c-0.516-0.123-1.031-0.247-1.547-0.37c1.747-6.063,2.108-13.177,5.665-17.868
	c3.005-3.965,9.712-5.124,14.785-7.516c0.137-0.064,0.331,0.002,0.495-0.018c9.25-1.121,12.464,1.514,12.308,11.264
	c-0.109,6.862-0.96,13.753-2.088,20.529c-0.268,1.604-2.889,3.846-4.583,3.992C393.108,723.293,387.275,722.985,381.467,722.985z"/>
<path fill-rule="evenodd" clip-rule="evenodd" d="M174.65,499.798c2.141-4.334,3.606-7.301,5.178-10.483
	c7.999,6.283,17.862,8.881,28.431,8.633c8.9-0.209,16.292-4.434,21.637-11.173c3.709-4.677,2.41-10.503-0.511-15.481
	c-2.917-4.97-6.369-9.624-9.36-14.554c-2.869-4.728-1.081-8.946,3.542-10.243c-0.599,2.643-2.362,5.871-1.634,8.375
	c0.884,3.039,3.982,5.391,5.923,8.178c3.166,4.545,6.51,9.024,9.071,13.902c0.97,1.848,0.364,4.814-0.183,7.114
	c-2.284,9.62-7.889,16.182-17.422,19.768c-12.556,4.722-24.933,3.94-37.325,0.045C179.025,502.943,176.428,500.812,174.65,499.798z"
	/>
<path fill-rule="evenodd" clip-rule="evenodd" d="M112.902,316.817c-1.38-21.333,28.933-68.844,53.507-83.465
	c-0.709,0.851-1.351,1.77-2.137,2.543c-18.243,17.965-29.634,39.686-35.376,64.501c-0.185,0.801-0.195,1.647-0.239,2.475
	c-0.383,7.201-1.679,8.922-8.565,11.367C117.777,315.061,115.468,315.896,112.902,316.817z"/>
<path fill-rule="evenodd" clip-rule="evenodd" d="M767.183,539.788c-0.814-0.423-1.822-0.664-2.415-1.295
	c-8.688-9.239-17.619-18.275-25.861-27.9c-5.411-6.318-8.51-14.262-8.845-22.521c-0.144-3.521,2.347-7.953,5.014-10.572
	c3.041-2.986,7.338-1.349,10.062,1.633c2.73,2.986,5.08,6.422,7.048,9.966c1.215,2.188,0.913,4.501-2.596,4.957
	c-4.951,0.644-5.609,4.622-4.592,8.153c3.379,11.723,9.887,21.663,18.506,30.3c1.85,1.854,3.03,4.376,4.519,6.59
	C767.742,539.328,767.463,539.559,767.183,539.788z"/>
<path fill-rule="evenodd" clip-rule="evenodd" d="M244.034,287.681c5.41-3.863,10.899-7.783,16.825-12.015
	c-1.152,13.064-0.777,26.504-11.456,36.362c-10.874,10.038-23.884,16.243-38.24,20.03
	C228.64,321.612,243.879,309.944,244.034,287.681z"/>
<path fill-rule="evenodd" clip-rule="evenodd" d="M195.341,317.313c3.215,3.513,6.923,6.7,9.526,10.62
	c3.619,5.449,9.247,7.346,14.693,7.763c7.836,0.6,15.813-0.682,23.732-1.121c4.796-0.266,9.597-0.456,14.395-0.68
	c0.059,0.701,0.117,1.401,0.176,2.102c-6.476,1.327-12.93,2.772-19.432,3.952c-10.168,1.845-19.362,5.924-27.904,11.628
	c-1.35,0.901-2.729,1.794-4.195,2.479c-4.062,1.896-6.377,0.569-6.605-3.926c-0.148-2.917-0.5-6.042,0.32-8.748
	c2.36-7.784-0.896-14.163-4.245-20.637c-0.487-0.942-0.902-1.922-1.35-2.884C194.749,317.679,195.045,317.496,195.341,317.313z"/>
<path fill-rule="evenodd" clip-rule="evenodd" d="M96.132,376.803c-19.258,0.947-56.614-20.031-57.093-31.516
	c10.66,8.562,23.624,12.133,36.897,14.587c5.81,1.074,11.865,0.907,17.815,1.093c2.647,0.083,4.205,0.825,3.86,3.74
	C97.149,368.621,96.657,372.529,96.132,376.803z"/>
<path fill-rule="evenodd" clip-rule="evenodd" d="M435.608,723.596c-2.661-4.545-4.307-8.963-7.299-12.098
	c-4.817-5.047-11.419-3.251-13.958,3.296c-0.972,2.505-1.218,5.286-2.116,7.828c-0.373,1.055-1.59,1.811-2.423,2.701
	c-0.375-0.188-0.749-0.375-1.124-0.562c0-7.311-0.355-14.65,0.234-21.913c0.159-1.959,2.866-4.611,4.96-5.334
	c4.896-1.688,10.125-2.417,15.226-3.503c5.038-1.072,7.198,2.017,8.49,6.094c2.016,6.361,3.099,12.858,0.943,19.369
	C437.945,721.275,436.259,722.716,435.608,723.596z"/>
<path fill-rule="evenodd" clip-rule="evenodd" d="M281.864,692.7c-2.649-0.985-5.428-2.353-8.365-3.021
	c-3.031-0.689-6.216-0.701-9.662-1.042c1.584-7.14,2.049-14.633,9.539-18.843c6.746-3.792,16.294-2.314,21.123,3.501
	c4.428,5.334,4.4,17.073-0.521,21.738c-1.256,1.19-4.058,0.753-6.149,1.063c0.279-1.577,0.169-3.372,0.908-4.692
	c2.345-4.189,2.785-11.019-0.112-13.529c-1.341-1.162-4.002-0.803-6.064-1.133c0.398,1.421,0.839,2.832,1.181,4.266
	c0.235,0.991,0.64,2.081,0.437,3.012C283.542,686.941,282.655,689.81,281.864,692.7z"/>
<path fill-rule="evenodd" clip-rule="evenodd" d="M290.423,599.627c1.374-2.601,2.617-4.956,3.557-6.734c-9.376,0-18.66,0-28.916,0
	c1.778-1.462,3.147-3.329,4.941-3.935c8.24-2.782,16.463-5.901,24.953-7.574c8.345-1.645,16.286-3.685,23.32-8.584
	c0.327-0.228,0.801-0.245,1.29-0.384C316.823,587.547,306.843,596.938,290.423,599.627z"/>
<path fill-rule="evenodd" clip-rule="evenodd" d="M154.606,494.032c0.945,0.43,2.261,0.598,2.779,1.33
	c6.356,8.983,15.255,14.284,25.31,18.118c2.128,0.812,4.085,2.424,5.743,4.052c4.427,4.348,8.648,8.904,12.896,13.32
	c-3.172,2.424-25.708-1.334-30.256-7.193c-6.743-8.688-11.982-18.542-17.861-27.9C153.68,495.184,154.143,494.607,154.606,494.032z"
	/>
<path fill-rule="evenodd" clip-rule="evenodd" d="M165.876,522.341c-23.716-9.687-38.693-34.771-36.808-62.511
	c3.957,6.312,7.566,11.281,10.324,16.688c2.907,5.696,4.988,11.813,7.451,17.738C151.266,504.894,156.156,515.22,165.876,522.341z"
	/>
<path fill-rule="evenodd" clip-rule="evenodd" d="M446.731,540.572c6.318,3.949,12.961,7.488,18.768,12.085
	c1.854,1.469,1.673,5.713,2.098,8.733c0.527,3.752,0.703,7.554,1.055,11.332c0.444,4.769,0.133,9.141-4.314,12.326
	c-4.823,3.455-9.405,7.248-14.783,10.182c4.977-5.134,6.543-11.5,8.134-17.876c1.755-7.034-0.194-13.684-1.93-20.378
	c-1.621-6.253-8.53-9.607-10.173-15.836C445.967,540.951,446.349,540.762,446.731,540.572z"/>
<path fill-rule="evenodd" clip-rule="evenodd" d="M590.858,483.992c14.549-2.077,25.909-10.59,37.67-18.305
	c3.204,6.62,6.218,12.848,9.235,19.083C622.343,489.065,606.644,486.765,590.858,483.992z"/>
<path fill-rule="evenodd" clip-rule="evenodd" d="M478.592,398.101c3.838,21.936,7.853,43.608,20.47,63.077
	c-6.491-3.264-13.004-6.486-19.44-9.855c-0.659-0.345-1.208-1.559-1.225-2.381c-0.293-15.057-0.533-30.115-0.678-45.174
	C477.701,401.881,478.286,399.99,478.592,398.101z"/>
<path fill-rule="evenodd" clip-rule="evenodd" d="M427.674,509.449c1.563,5.148,3.066,10.1,4.552,14.989
	c-12.228,0.611-43.927-17.354-47.687-27.399C398.519,504.019,412.275,510.159,427.674,509.449z"/>
<path fill-rule="evenodd" clip-rule="evenodd" d="M637.107,693.52c-3.059,0-6.043,0-9.033,0
	c-1.754-10.186,2.26-18.854,22.957-22.465c1.948,3.463,4.101,6.938,5.904,10.586c2.053,4.151-0.326,7.995-5.911,9.1
	c-2.766,0.547-5.729,0.096-8.814-0.786c1.687-0.743,3.933-1.066,4.897-2.351c0.899-1.197,0.437-3.418,0.573-5.194
	C640.63,682.372,639.172,684.002,637.107,693.52z"/>
<path fill-rule="evenodd" clip-rule="evenodd" d="M735.742,682.571c0.806-5.188,1.559-10.037,2.319-14.932
	c4.065,0.725,8.056,0.925,9.564-2.579c5.811,6.149,11.986,12.687,18.162,19.223c-0.188,0.283-0.377,0.567-0.565,0.852
	c-1.969-0.943-3.945-1.873-5.906-2.834c-5.516-2.705-9.543-0.329-9.58,5.9c-0.021,3.26,0.59,6.521,0.818,9.787
	c0.088,1.262-0.094,2.542-0.62,4.021C746.181,694.648,744.76,685.705,735.742,682.571z"/>
<path fill-rule="evenodd" clip-rule="evenodd" d="M464.259,539.476c1.611-14.555-2.515-27.452-8.956-38.826
	c4.415-4.166,8.651-8.164,12.887-12.161c0.457,4.011,0.754,8.478,1.542,12.855c0.508,2.82,1.774,5.498,2.622,8.264
	c0.231,0.757,0.561,1.895,0.201,2.36c-4.855,6.301-2.19,13.962-3.798,20.849C468.073,535.745,468.115,538.609,464.259,539.476z"/>
<path fill-rule="evenodd" clip-rule="evenodd" d="M273.592,655.727c-1.314,2.863-2.649,5.717-3.936,8.592
	c-1.258,2.81-2.465,5.641-3.695,8.463c-0.418-0.141-0.837-0.282-1.255-0.423c0-4.975-1.356-10.497,0.375-14.771
	c1.792-4.424,6.265-8.004,10.138-11.275c4.065-3.433,8.811-6.062,12.547-8.564c-0.945,4.198-2.605,8.975-2.913,13.837
	c-0.211,3.336,1.455,6.792,2.284,10.193c0.153,0.628,0.515,1.775,0.442,1.804c-3.119,1.198-6.234,2.479-9.471,3.227
	c-0.54,0.125-2.131-2.04-2.353-3.302c-0.394-2.24-0.11-4.6-0.11-6.909C274.96,656.308,274.276,656.017,273.592,655.727z"/>
<path fill-rule="evenodd" clip-rule="evenodd" d="M754.809,713.522c-2.689-6.434-0.179-19.145,5.014-22.01
	c2.738-1.512,7.89-1.521,10.412,0.136c3.568,2.343,6.031,6.659,8.375,10.493c2.355,3.854-0.789,6.094-3.644,7.651
	c-2.686,1.466-5.385,2.136-7.484-1.707c-1.005-1.839-3.96-3.991-5.652-3.711c-1.97,0.326-3.645,3.061-5.207,4.948
	C755.837,710.271,755.584,711.657,754.809,713.522z"/>
<path fill-rule="evenodd" clip-rule="evenodd" d="M239.886,685.637c2.23-3.927,3.112-8.139-0.627-11.173
	c-1.829-1.483-5.031-1.275-7.612-1.832c0,2.16,0,4.32,0,7.632c-3.577,4.094-6.53,4.959-9.431,0.749
	c-1.636-2.375-1.867-6.707-0.983-9.629c1.972-6.515,10.531-8.958,19.638-6.369c4.551,1.294,7.665,7.471,6.752,13.394
	C246.986,682.545,243.722,685.715,239.886,685.637z"/>
<path fill-rule="evenodd" clip-rule="evenodd" d="M446.719,719.987c-0.541-3.462-1.906-7.035-1.455-10.362
	c1.022-7.539,10.055-14.131,17.771-13.578c1.071,0.076,2.705,0.892,3.008,1.745c2.443,6.874,4.572,13.84-0.353,21.7
	c-0.46-1.887-0.87-2.994-0.984-4.131c-0.512-5.123-4.542-7.182-8.624-4.047c-2.163,1.662-3.725,4.113-5.537,6.226
	c-0.769,0.896-1.485,1.838-2.226,2.758C447.786,720.194,447.253,720.091,446.719,719.987z"/>
<path fill-rule="evenodd" clip-rule="evenodd" d="M809.744,621.457c1.123,2.064,2.746,4.125,3.424,6.459
	c2.51,8.649,4.819,17.362,6.968,26.109c0.819,3.332,1.237,6.812,1.341,10.24c0.034,1.135-1.411,3.218-2.318,3.297
	c-2.114,0.185-4.798,0.078-6.387-1.089c-4.649-3.415-2.965-8.717-3.002-13.396C809.688,642.764,809.744,632.45,809.744,621.457z"/>
<path fill-rule="evenodd" clip-rule="evenodd" d="M305.695,615.91c-0.334,0.691-0.669,1.383-1.004,2.075
	c-1.069,1.206-2.082,2.469-3.218,3.608c-3.458,3.468-6.46,7.729-10.543,10.171c-12.392,7.414-24.076,15.443-31.759,28.234
	c-0.397-0.287-0.793-0.575-1.19-0.862c2.231-3.874,3.935-8.206,6.805-11.529c6.115-7.081,12.985-13.504,19.261-20.453
	c4.954-5.485,12.555-6.486,17.945-11.184C302.704,615.351,304.436,615.901,305.695,615.91z"/>
<path fill-rule="evenodd" clip-rule="evenodd" d="M191.663,513.155c15.894,7.689,32.256,8.911,49.289,4.636
	c0.175,0.609,0.351,1.219,0.527,1.827c-5.412,2.79-10.821,5.585-16.241,8.36c-0.576,0.295-1.208,0.48-1.82,0.704
	c-10.483,3.829-10.574,3.544-18.274-4.421C201.122,520.103,196.186,516.828,191.663,513.155z"/>
<path fill-rule="evenodd" clip-rule="evenodd" d="M540.946,414.786c-0.286,6.823-3.631,10.467-9.371,10.212
	c-5.166-0.229-9.023-4.274-8.894-9.326c0.146-5.662,5.032-10.83,10.087-10.667C539.091,405.209,541.241,407.78,540.946,414.786z"/>
<path fill-rule="evenodd" clip-rule="evenodd" d="M235.586,273.864c-3.28-3.697-5.668-6.389-7.661-8.635
	c5.653-7.041,10.939-13.623,16.556-20.618c3.624,0.996,6.962,7.86,4.258,11.738C244.715,262.12,240.305,267.622,235.586,273.864z"/>
<path fill-rule="evenodd" clip-rule="evenodd" d="M661.312,684.288c-2.71-5.089-5.286-9.925-7.739-14.53
	c3.112-1.979,7.318-3.791,10.316-6.806c2.972-2.987,4.726-7.188,7.184-11.128C675.945,661.192,670.052,678.771,661.312,684.288z"/>
<path fill-rule="evenodd" clip-rule="evenodd" d="M220.047,513.843c17.735-7.953,38.476-11.026,42.784-35.093
	c0.45,0.201,0.9,0.402,1.35,0.604c-1.483,5.756-2.928,11.522-4.48,17.259c-0.339,1.252-1.195,2.357-1.589,3.601
	c-2.649,8.35-7.767,11.932-16.981,11.04c-5.71-0.552-11.666,1.458-17.516,2.288C222.435,513.709,221.237,513.746,220.047,513.843z"
	/>
<path fill-rule="evenodd" clip-rule="evenodd" d="M241.665,434.304c5.252,7.624,10.514,15.241,15.743,22.882
	c0.458,0.669,0.683,1.494,1.042,2.234c4.358,8.977,2.8,18.525-4.354,25.456c-0.877,0.851-2.497,0.935-4.88,1.755
	c6.167-19.397,4.936-36.592-9.683-51.109C240.243,435.115,240.954,434.709,241.665,434.304z"/>
<path fill-rule="evenodd" clip-rule="evenodd" d="M292.921,289.002c4.471,11.131,8.941,22.263,13.894,34.595
	c-5.371,0.689-9.259,1.188-13.151,1.688c-0.773-12.567-1.487-24.156-2.2-35.746C291.95,289.361,292.436,289.182,292.921,289.002z"/>
<path fill-rule="evenodd" clip-rule="evenodd" d="M190.484,232.509c0.692-1.65,0.914-3.991,2.155-4.834
	c6.728-4.574,13.578-9.015,20.703-12.924c1.553-0.852,5.255-0.106,6.453,1.246c1.928,2.178,2.597,5.471,3.798,8.293
	c-1.229,0.46-2.628,1.558-3.659,1.282C208.981,222.635,199.267,224.221,190.484,232.509z"/>
<path fill-rule="evenodd" clip-rule="evenodd" d="M196.67,244.061c3.849-10.991,14.881-14.471,23.432-7.841
	c0.771,0.598,1.515,1.929,1.42,2.831c-0.662,6.317-7.668,11.479-13.774,9.788C203.892,247.769,200.319,245.673,196.67,244.061z
	 M199.364,241.551c0.214,1.014,0.429,2.029,0.643,3.043c3.58-0.205,7.193-0.205,10.714-0.772c0.788-0.127,1.73-2.255,1.705-3.442
	c-0.017-0.805-1.803-2.39-2.449-2.229C206.381,239.048,202.891,240.373,199.364,241.551z"/>
<path fill-rule="evenodd" clip-rule="evenodd" d="M555.69,287.354c1.116,10.101,2.232,20.201,3.507,31.733
	c-4.419-2.776-7.612-4.661-10.635-6.788c-0.59-0.415-0.908-1.884-0.685-2.679c2.085-7.379,4.317-14.718,6.506-22.068
	C554.819,287.486,555.255,287.42,555.69,287.354z"/>
<path fill-rule="evenodd" clip-rule="evenodd" d="M557.647,399.518c0.009,4.474-3.396,8.549-7.062,8.453
	c-3.263-0.086-7.239-5.521-6.815-9.937c0.386-4.023,3.056-5.99,7.071-6.07C555.365,391.875,557.637,394.411,557.647,399.518z"/>
<path fill-rule="evenodd" clip-rule="evenodd" d="M747.496,709.574c-3.593,1.524-4.826-1.008-6.497-3.379
	c-1.138-1.613-3.075-3.727-4.619-3.698c-1.646,0.031-3.249,2.321-5.552,4.173c-0.124-1.258-0.66-2.847-0.344-4.242
	c0.861-3.804,1.798-7.641,3.25-11.245c1.212-3.006,3.458-3.728,5.296-0.347c1.469,2.701,2.544,5.616,3.808,8.43
	C744.364,702.664,745.905,706.057,747.496,709.574z"/>
<path fill-rule="evenodd" clip-rule="evenodd" d="M386.649,232.693c-0.068,5.073-2.345,7.385-7.177,7.292
	c-4.064-0.079-6.682-3.062-6.594-7.517c0.094-4.709,2.387-6.648,7.726-6.53C385.583,226.048,386.722,227.321,386.649,232.693z"/>
<path fill-rule="evenodd" clip-rule="evenodd" d="M169.938,493.986c-4.541-0.112-7.29-3.688-7.404-9.062
	c-0.093-4.367,3.146-5.156,6.09-5.632c2.996-0.483,7.952,5.647,7.637,9.264C175.945,492.201,173.615,494.003,169.938,493.986z"/>
<path fill-rule="evenodd" clip-rule="evenodd" d="M562.65,380.264c0.828,3.944-1.771,5.904-5.421,6.374
	c-3.558,0.458-7.616-4.735-7.239-9.127c0.332-3.864,3.41-5.134,6.66-5.437C560.622,371.703,562.706,374.611,562.65,380.264z"/>
<path fill-rule="evenodd" clip-rule="evenodd" d="M228.018,447.428c1.783-0.605,3.007-1.248,4.294-1.417
	c4.92-0.647,5.974-2.491,3.33-6.751c-1.233-1.988-3.092-3.588-5.364-6.15c1.606,0.248,2.781,0.162,3.688,0.613
	c5.588,2.787,8.331,7.79,9.505,13.566c0.324,1.594-0.816,4.736-1.95,5.102c-2.096,0.676-4.833,0.25-7.024-0.516
	C232.474,451.17,230.818,449.418,228.018,447.428z"/>
<path fill-rule="evenodd" clip-rule="evenodd" d="M366.67,217.329c0.063,4.26-3.547,4.869-6.309,5.478
	c-3.578,0.789-6.598-3.202-6.734-7.776c-0.122-4.106,2.576-5.513,5.803-5.923C363.263,208.62,366.56,212.614,366.67,217.329z"/>
<path fill-rule="evenodd" clip-rule="evenodd" d="M239.013,434.078c-3.622-1.832-6.621-6.895-11.432-2.506
	c-4.362,3.979-0.285,7.385,0.756,11.01c-6.367-0.564-10.692-8.309-7.694-13.65c2.477-4.413,6.599-3.599,9.961-2.275
	c3.359,1.322,6.165,4.049,9.214,6.16C239.549,433.236,239.281,433.657,239.013,434.078z"/>
<path fill-rule="evenodd" clip-rule="evenodd" d="M339.669,197.958c3.706,0.333,5.996,1.949,6.013,6.117
	c0.018,4.107-2.621,5.458-5.93,5.851c-2.914,0.345-6.552-3.499-5.962-6.489C334.368,200.508,335.688,197.679,339.669,197.958z"/>
<path fill-rule="evenodd" clip-rule="evenodd" d="M558.438,362.616c-2.127,2.49-3.253,4.984-4.516,5.055
	c-3.161,0.178-5.337-2.341-4.992-5.306c0.186-1.598,2.626-3.863,4.269-4.069C554.514,358.131,556.161,360.622,558.438,362.616z"/>
<path fill-rule="evenodd" clip-rule="evenodd" d="M324.851,196.34c-1.816,1.231-3.23,2.745-3.815,2.473
	c-1.323-0.615-2.959-2.034-3.092-3.272c-0.108-1.018,1.767-2.248,2.763-3.383C321.868,193.329,323.029,194.501,324.851,196.34z"/>
</svg>
