<?xml version="1.0" encoding="UTF-8" standalone="no"?>
<svg
   xmlns:dc="http://purl.org/dc/elements/1.1/"
   xmlns:cc="http://creativecommons.org/ns#"
   xmlns:rdf="http://www.w3.org/1999/02/22-rdf-syntax-ns#"
   xmlns:svg="http://www.w3.org/2000/svg"
   xmlns="http://www.w3.org/2000/svg"
   xmlns:sodipodi="http://sodipodi.sourceforge.net/DTD/sodipodi-0.dtd"
   xmlns:inkscape="http://www.inkscape.org/namespaces/inkscape"
   version="1.1"
   x="0px"
   y="0px"
   viewBox="-4.637 -1.326 88.596 125"
   enable-background="new -4.637 -1.326 88.596 100"
   xml:space="preserve"
   id="svg100"
   sodipodi:docname="email.svg"
   inkscape:version="0.92.2 5c3e80d, 2017-08-06"><metadata
     id="metadata106"><rdf:RDF><cc:Work
         rdf:about=""><dc:format>image/svg+xml</dc:format><dc:type
           rdf:resource="http://purl.org/dc/dcmitype/StillImage" /></cc:Work></rdf:RDF></metadata><defs
     id="defs104" /><sodipodi:namedview
     pagecolor="#ffffff"
     bordercolor="#666666"
     borderopacity="1"
     objecttolerance="10"
     gridtolerance="10"
     guidetolerance="10"
     inkscape:pageopacity="0"
     inkscape:pageshadow="2"
     inkscape:window-width="1310"
     inkscape:window-height="856"
     id="namedview102"
     showgrid="false"
     inkscape:zoom="4.832"
     inkscape:cx="44.298"
     inkscape:cy="62.5"
     inkscape:window-x="0"
     inkscape:window-y="0"
     inkscape:window-maximized="0"
     inkscape:current-layer="svg100" /><path
     d="M34.559,96.767C9.338,91.117-7.075,71.569-4.341,41.517C-1.654,12.006,21.721-2.07,44.678-1.296  C63.024-0.679,82.337,12.505,83.877,37.6c0.723,11.746-3.395,22.679-10.049,29.42c-8.635,8.745-19.674,10.466-28.74,9.201  C31.251,74.304,17.51,64.993,18.264,44.954c0.267-7.126,3.701-14.744,9.24-19.788c3.583-3.268,9.538-5.932,15.47-5.743  c6.411,0.208,11.448,3.154,14.756,7.464c5.869,7.661,5.712,19.917,5.492,21.124c0,0-0.04,0.302-0.095,0.711  c-0.149,0.998-0.99,1.744-1.964,1.736l-30.25-0.181c-0.141-0.004-0.283,0.067-0.377,0.185s-0.142,0.275-0.118,0.413  c2.083,11.762,13.239,13.718,15.847,14.063c3.167,0.425,11.723,1.258,18.825-5.782c4.864-4.809,7.119-9.829,7.48-21.025  c0.354-10.708-8.188-28.571-31.342-28.654C29.138,9.433,9.37,19.564,7.429,42.699C5.512,65.44,18.067,82.694,38.189,86.183  c27.562,4.777,38.515-7.408,38.515-7.408c0.511-0.307,1.107-0.149,1.343,0.354l4.354,8.509c0.109,0.228,0.196,0.542,0.109,0.825  c-0.094,0.274-0.173,0.361-0.471,0.604C82.047,89.066,66.065,103.813,34.559,96.767z M31.895,38.154  c-0.086,0.2-0.125,0.413-0.047,0.593c0.079,0.177,0.251,0.291,0.44,0.291l19.289,0.142c0.149,0.004,0.299-0.067,0.409-0.193  c0.102-0.129,0.148-0.291,0.125-0.444c-0.298-1.803-0.872-3.61-1.979-5.028c-1.524-1.964-4.573-3.288-8.007-3.186  c-3.024,0.09-5.122,1.143-7.079,2.97C33.42,34.822,32.225,37.344,31.895,38.154z"
     id="path94" /><path
     id="text96"
     transform="translate(-4.637,-1.326)"
     d="m 41.625,111.42969 c 0.06735,0.007 0.113331,0.0128 0.181641,0.0195 v -0.0195 z m -29.146484,0.46484 c -0.236373,0.0169 -0.472513,0.0362 -0.708985,0.0508 v 0.0176 h 0.708985 z m 39.458984,1.10352 c 0.0048,-7.1e-4 0.01445,0.004 0.01953,0.004 0.0071,2.6e-4 0.01434,-2.5e-4 0.02148,0 0.01347,4.9e-4 -0.0276,-0.003 -0.04102,-0.004 z m 1.990234,0.61328 c -0.08183,0.0808 -0.178224,0.15517 -0.296875,0.21679 0.0163,-0.001 0.02251,-1.9e-4 0.03125,0 0.002,-3.6e-4 0.0039,3.9e-4 0.0059,0 0.178451,-0.0328 0.252673,-0.0632 0.27539,-0.0273 0.0016,-0.0651 -0.01065,-0.12609 -0.01563,-0.18945 z m 0.02344,0.25976 c -4.81e-4,0.004 -0.0013,0.006 -0.002,0.01 h 0.002 c 2.24e-4,-0.003 -2.07e-4,-0.006 0,-0.01 z m -0.06055,0.32813 c -0.0041,0.0209 -0.0074,0.0315 -0.01172,0.0547 0.0074,-0.0206 0.02043,-0.0333 0.02734,-0.0547 z" /><path
     id="text98"
     transform="translate(-4.637,-1.326)"
     d="m 2.5878906,118.53711 c -0.0018,0.002 -0.033221,0.0266 -0.025391,0.0215 0.00934,-0.006 0.018032,-0.0133 0.027344,-0.0195 z m -0.1582031,0.44922 c -0.2347641,0.55397 -0.5344657,1.47224 0.0625,0 -0.020831,6e-4 -0.041665,-5.4e-4 -0.0625,0 z m 50.2265625,0.87305 c -0.04269,0.0493 -0.08207,0.10159 -0.123047,0.15234 0.0419,-0.004 0.086,-0.006 0.123047,-0.0117 z" /><path
     style="fill:#ff00ff;stroke-width:0.20695364"
     d="M 48.995848,99.558342 C 30.427234,97.695567 16.489923,90.274528 8.1535567,77.811527 2.2062063,68.920141 -0.57650014,57.407628 0.24382626,45.087672 0.86308053,35.787492 3.1436374,28.114398 7.2973326,21.355656 14.129881,10.237981 26.021483,2.7040596 40.006535,0.63274969 43.548753,0.10811585 49.547377,0.00713657 52.764349,0.41798796 68.755086,2.4602243 81.395763,12.681524 86.230115,27.478533 c 1.53535,4.699406 2.18584,8.903441 2.188705,14.145273 0.0067,12.33238 -4.937376,23.143073 -13.610354,29.760141 -4.12904,3.15026 -9.012209,5.160157 -14.706209,6.053031 -3.266496,0.512219 -9.361118,0.318914 -12.776422,-0.405235 -11.220559,-2.379098 -19.282301,-8.937769 -22.62192,-18.404175 -1.242047,-3.520676 -1.548324,-5.555252 -1.563564,-10.386674 -0.0186,-5.896724 0.533622,-8.444476 2.87084,-13.245033 3.098262,-6.363705 7.860478,-10.75476 13.982173,-12.892419 7.750273,-2.706347 15.648645,-0.930661 20.974973,4.715529 1.628783,1.726598 2.576795,3.140855 3.670731,5.476054 2.006875,4.284033 3.06947,9.397688 3.106682,14.950681 0.01954,2.916012 -0.196301,3.743212 -1.103396,4.228675 -0.346378,0.185375 -4.223781,0.216517 -15.946871,0.12808 -17.489294,-0.131937 -15.914528,-0.296095 -15.513222,1.617146 1.086085,5.177934 4.914897,9.546968 10.225029,11.667713 3.139247,1.253744 4.840426,1.545497 9.072829,1.555997 4.230381,0.01049 5.574288,-0.211312 8.4851,-1.400426 5.952471,-2.431684 10.728646,-7.685631 12.708663,-13.979936 1.33,-4.227953 1.963617,-12.251314 1.277015,-16.170571 C 75.409678,26.094799 69.729749,18.396261 61.794442,14.349431 55.397659,11.087212 47.086593,9.8985882 40.454784,11.297497 28.764029,13.763537 18.798295,22.156298 14.434656,33.210654 c -3.337963,8.45602 -3.488364,20.480964 -0.373065,29.827425 3.114362,9.343649 9.429892,16.726654 17.964058,21.000414 4.353655,2.180232 8.437295,3.324102 14.900662,4.173825 3.412163,0.448588 12.116699,0.512841 15.004139,0.110755 7.704733,-1.072914 14.583252,-3.793123 18.59,-7.351682 0.596426,-0.529713 1.222366,-0.963113 1.390977,-0.963113 0.398976,0 0.744299,0.580679 3.096718,5.207289 1.080033,2.124149 1.963696,4.087856 1.963696,4.363789 0,0.620243 -2.143551,2.27875 -5.132444,3.971077 -8.908044,5.043776 -20.789365,7.217167 -32.843549,6.007909 z m 7.531556,-59.060078 c 0.400319,-0.253494 0.154038,-1.961072 -0.52888,-3.666971 -1.293034,-3.22994 -4.66201,-5.237973 -8.803334,-5.247108 -4.576944,-0.0101 -8.056635,2.329147 -10.328084,6.943114 -0.534793,1.086319 -0.606654,1.383705 -0.39577,1.637804 0.219979,0.26506 1.50302,0.318724 8.77106,0.366851 4.682361,0.03101 9.07216,0.07717 9.755107,0.102584 0.682947,0.02542 1.371403,-0.03591 1.529901,-0.136274 z"
     id="path49"
     inkscape:connector-curvature="0"
     transform="translate(-4.637,-1.326)" /></svg>